<svg width="227" height="56" viewBox="0 0 227 56" fill="none" xmlns="http://www.w3.org/2000/svg">
<path d="M123.01 40.8603C123.037 40.9181 123.064 40.9715 123.099 41.0337V40.8603H123.01Z" fill="#144C78"/>
<path d="M123.01 40.8603C123.037 40.9181 123.064 40.9715 123.099 41.0337V40.8603H123.01Z" fill="#144C78"/>
<path d="M148.638 46.571C148.567 44.7594 148.532 42.0789 148.532 38.5297V8.3215H139.359C139.956 8.30369 140.536 8.51702 140.98 8.91748C141.177 9.08445 141.336 9.2919 141.446 9.52588C141.557 9.75987 141.616 10.015 141.621 10.274V19.9921C141.179 19.1603 140.353 18.4398 139.112 17.8216C137.871 17.2034 136.246 16.8965 134.228 16.8965C130.235 16.8965 127.07 18.3361 124.733 21.2152C123.673 22.5292 122.845 24.0172 122.286 25.6138C121.845 26.9017 121.548 28.2355 121.403 29.59C121.299 30.4995 121.247 31.4143 121.248 32.3298C121.248 35.661 121.836 38.5031 123.015 40.8603H123.103V41.0338C123.489 41.781 123.946 42.4885 124.468 43.1464C126.626 45.8624 129.521 47.2204 133.155 47.2204C137.294 47.2204 140.118 45.8624 141.625 43.1464V46.571H148.638ZM141.13 37.3912C140.885 38.1768 140.502 38.9119 140 39.5616C139.468 40.1893 138.79 40.6739 138.026 40.9715C137.075 41.3566 136.056 41.5427 135.031 41.5185C134.082 41.5574 133.138 41.3564 132.286 40.9338C131.434 40.5111 130.7 39.8804 130.151 39.099C128.974 37.489 128.385 35.1614 128.385 32.1163C128.35 30.3769 128.622 28.645 129.189 27.0015C129.627 25.7005 130.444 24.5628 131.534 23.737C132.639 22.9574 133.965 22.558 135.314 22.5984C136.48 22.5586 137.641 22.7819 138.71 23.2522C139.586 23.6605 140.298 24.3548 140.733 25.2225C141.19 26.1276 141.5 27.1006 141.651 28.1045C141.829 29.355 141.91 30.6175 141.894 31.8805C141.902 32.8527 141.847 33.8242 141.731 34.7893C141.617 35.6722 141.419 36.542 141.139 37.3867L141.13 37.3912Z" fill="#144C78"/>
<path d="M178.801 38.1428C178.801 41.5853 178.819 44.3932 178.854 46.5666H172.053C171.982 46.024 171.929 44.792 171.894 42.8706C170.31 45.7705 167.576 47.2204 163.693 47.2204C160.778 47.2204 158.448 46.3309 156.702 44.5518C154.956 42.7728 154.085 40.0923 154.088 36.5105V19.5606C154.084 19.3025 154.027 19.0479 153.92 18.8135C153.813 18.579 153.658 18.3699 153.465 18.1997C153.252 17.9997 153.002 17.8441 152.729 17.7418C152.456 17.6395 152.166 17.5926 151.875 17.6037H161.048V35.1006C161.048 39.3021 162.702 41.4029 166.012 41.4029C167.19 41.4597 168.36 41.1774 169.386 40.589C170.302 39.9421 170.961 38.9886 171.245 37.8982C171.698 36.2632 171.905 34.5691 171.859 32.8724V17.6037H178.819L178.801 38.1428Z" fill="#144C78"/>
<path d="M196.175 13.6586C195.533 13.6428 194.895 13.7736 194.311 14.0411C193.859 14.2309 193.481 14.5634 193.233 14.9885C193.037 15.3632 192.875 15.7546 192.748 16.1582C192.629 16.4697 192.591 16.8064 192.637 17.1367C192.691 17.2941 192.7 17.4636 192.664 17.6259H197.963V22.9987H192.664V46.571H185.704V22.9987H182.091V17.6037H185.704V17.0344C185.726 16.5787 185.771 16.1244 185.84 15.6734C185.926 15.0218 186.062 14.3779 186.247 13.7476C186.471 13.025 186.778 12.331 187.161 11.6795C187.573 10.9449 188.103 10.2837 188.729 9.7225C189.446 9.127 190.268 8.6742 191.153 8.38821C192.265 8.01032 193.433 7.82681 194.607 7.8456C195.785 7.80279 196.963 7.9119 198.113 8.17028V13.801C197.473 13.6924 196.824 13.6447 196.175 13.6586V13.6586Z" fill="#144C78"/>
<path d="M214.343 26.0808L211.419 35.7366L202.406 19.0314C202.221 18.6272 201.927 18.2835 201.558 18.0395C201.077 17.7278 200.513 17.5725 199.942 17.5948H209.838L214.343 26.0808Z" fill="#144C78"/>
<path d="M227 7.28076L215.235 48.2523H207.626L211.419 35.7366L214.343 26.0809L220.044 7.28076H227Z" fill="#144C78"/>
<path d="M123.099 40.8603V41.0337C123.064 40.9715 123.037 40.9181 123.01 40.8603H123.099Z" fill="#144C78"/>
<path d="M123.099 7.93457V13.9611H103.517V23.5279H119.416C118.648 25.4384 118.164 27.4527 117.98 29.5055L103.795 29.1631H103.539V40.8603H119.301C119.909 42.4649 120.759 43.9652 121.822 45.3079C122.224 45.8132 122.658 46.2916 123.121 46.7401V46.9091H96.4422V10.8833C96.4306 10.389 96.2773 9.90862 96.0006 9.50013C95.6962 9.03037 95.2783 8.64622 94.7861 8.38378C94.2451 8.08493 93.6366 7.93174 93.0196 7.93902L123.099 7.93457Z" fill="#144C78"/>
<path d="M5.20677 16.3939H1.94315C0.86998 16.3939 0 17.2701 0 18.3509C0 19.4317 0.86998 20.3078 1.94315 20.3078H5.20677C6.27994 20.3078 7.14992 19.4317 7.14992 18.3509C7.14992 17.2701 6.27994 16.3939 5.20677 16.3939Z" fill="#41BFB4"/>
<path d="M44.4408 5.7063L37.6265 9.62021H20.9066C20.3912 9.62021 19.897 9.41403 19.5326 9.04703C19.1681 8.68003 18.9634 8.18227 18.9634 7.66325C18.9634 7.14424 19.1681 6.64648 19.5326 6.27948C19.897 5.91248 20.3912 5.7063 20.9066 5.7063H44.4408Z" fill="#144C78"/>
<path d="M40.7444 29.9458H20.1205C19.6051 29.9458 19.1109 29.7396 18.7464 29.3726C18.382 29.0056 18.1773 28.5079 18.1773 27.9889C18.1773 27.4699 18.382 26.9721 18.7464 26.6051C19.1109 26.2381 19.6051 26.0319 20.1205 26.0319H35.3963L40.7444 29.9458Z" fill="#144C78"/>
<path d="M28.3303 34.5625H39.6624V38.4719H28.3303C28.0676 38.4845 27.8051 38.4433 27.5587 38.3508C27.3123 38.2583 27.0871 38.1163 26.8968 37.9336C26.7065 37.7508 26.555 37.531 26.4514 37.2876C26.3479 37.0441 26.2945 36.782 26.2945 36.5172C26.2945 36.2523 26.3479 35.9903 26.4514 35.7468C26.555 35.5033 26.7065 35.2836 26.8968 35.1008C27.0871 34.9181 27.3123 34.7761 27.5587 34.6836C27.8051 34.591 28.0676 34.5498 28.3303 34.5625V34.5625Z" fill="#144C78"/>
<path d="M15.7969 5.7063H12.6967C11.6236 5.7063 10.7536 6.58246 10.7536 7.66325C10.7536 8.74405 11.6236 9.62021 12.6967 9.62021H15.7969C16.8701 9.62021 17.7401 8.74405 17.7401 7.66325C17.7401 6.58246 16.8701 5.7063 15.7969 5.7063Z" fill="#41BFB4"/>
<path d="M15.0462 26.0319H11.7826C10.7094 26.0319 9.83942 26.9081 9.83942 27.9889C9.83942 29.0697 10.7094 29.9458 11.7826 29.9458H15.0462C16.1194 29.9458 16.9893 29.0697 16.9893 27.9889C16.9893 26.9081 16.1194 26.0319 15.0462 26.0319Z" fill="#41BFB4"/>
<path d="M23.3841 34.558H20.1205C19.0473 34.558 18.1773 35.4342 18.1773 36.515C18.1773 37.5958 19.0473 38.4719 20.1205 38.4719H23.3841C24.4573 38.4719 25.3272 37.5958 25.3272 36.515C25.3272 35.4342 24.4573 34.558 23.3841 34.558Z" fill="#41BFB4"/>
<path d="M26.4048 16.3984C26.0012 17.0274 25.7808 17.7578 25.7689 18.5066C25.7588 19.1201 25.8856 19.728 26.1398 20.2856H10.365C10.1023 20.2982 9.83979 20.257 9.59339 20.1645C9.34699 20.072 9.1218 19.93 8.93147 19.7473C8.74114 19.5645 8.58963 19.3447 8.4861 19.1013C8.38257 18.8578 8.32919 18.5957 8.32919 18.3309C8.32919 18.066 8.38257 17.804 8.4861 17.5605C8.58963 17.317 8.74114 17.0973 8.93147 16.9145C9.1218 16.7318 9.34699 16.5898 9.59339 16.4973C9.83979 16.4047 10.1023 16.3635 10.365 16.3762L26.4048 16.3984Z" fill="#144C78"/>
<path d="M76.3482 30.5596V45.3257C76.35 45.6836 76.2593 46.0357 76.0851 46.3476C75.9109 46.6595 75.6592 46.9204 75.3546 47.1048L62.1058 55.1105C61.1571 55.6885 60.0702 55.996 58.9614 56V56C57.8512 55.9966 56.7627 55.6891 55.8126 55.1105L42.5639 47.1048C41.9456 46.7312 41.5702 46.0596 41.5702 43.1019V30.5596L53.2247 37.2622C54.782 38.2871 56.5787 38.8836 58.4359 38.9923C58.6126 38.9923 58.7848 38.9923 58.9614 38.9923C59.1337 38.9923 59.3103 38.9923 59.4826 38.9923C61.3404 38.8832 63.138 38.2885 64.6982 37.2666L76.3482 30.5596Z" fill="#144C78"/>
<path d="M58.9614 4.88349L82.9461 18.6711L72.7888 24.8222L63.7443 30.3017L62.4724 31.0711C61.4138 31.7154 60.2005 32.056 58.9637 32.056C57.7268 32.056 56.5135 31.7154 55.4549 31.0711L53.2468 29.7368L50.8532 28.2691L50.7384 28.1979L50.2658 27.9133L44.3922 24.3552L44.0831 24.1684L43.796 23.9949L34.9635 18.6578L43.3058 13.8677L43.9197 13.5163L50.1289 9.95823L50.7384 9.60686L58.9482 4.89239M58.9482 2.00959e-06C58.6289 -0.000474798 58.3151 0.083904 58.0385 0.244621L48.5523 5.7063L47.9341 6.06211L41.7513 9.62021L41.133 9.97602L30.1763 16.2516L29.9246 16.3984L28.9088 16.981C28.6325 17.1396 28.4017 17.3676 28.2388 17.6427C28.076 17.9178 27.9866 18.2307 27.9795 18.5509C27.9724 18.8711 28.0477 19.1877 28.1982 19.4699C28.3487 19.7521 28.5692 19.9902 28.8382 20.1611H28.8691L29.0722 20.2856L41.5084 27.811L42.0958 28.1668C44.0875 29.3677 46.0704 30.5819 47.9738 31.7249L48.5567 32.0807L53.1629 34.8694C54.914 35.9314 56.9195 36.4927 58.9637 36.4927C61.0078 36.4927 63.0133 35.9314 64.7644 34.8694C67.6747 33.0903 71.3667 30.8665 75.0764 28.6427C80.473 25.3692 85.9139 22.078 89.0538 20.1922C89.3294 20.0253 89.5569 19.7886 89.7134 19.5057C89.87 19.2227 89.9503 18.9035 89.9463 18.5796C89.9422 18.2557 89.8541 17.9385 89.6905 17.6596C89.527 17.3807 89.2938 17.1498 89.0141 16.9899L59.8668 0.262412C59.6456 0.134485 59.4005 0.0542141 59.1469 0.0266867H58.9526L58.9482 2.00959e-06Z" fill="#41BFB4"/>
</svg>
