<svg width="350" height="208" viewBox="0 0 350 208" fill="none" xmlns="http://www.w3.org/2000/svg">
<rect width="350" height="208" rx="8" fill="#F6F8FA"/>
<path d="M102.182 208C100.077 204.215 98.0119 200.348 95.9415 196.47C89.4541 184.319 82.9101 172.062 74.8716 161.889C68.6962 154.074 61.3292 146.941 54.0297 139.874C37.4887 123.859 21.2941 108.179 20.0957 85.6531C18.3187 52.2501 41.5681 23.4207 66.3049 0.863113C66.6222 0.573746 66.9406 0.286041 67.2602 0H249.177C249.724 0.384644 250.273 0.769943 250.822 1.15598C282.478 23.3912 317.55 48.0266 318.958 85.6531C320.203 118.927 293.669 142.779 267.85 165.988C261.407 171.78 255.009 177.532 249.098 183.38C242.877 189.534 236.743 196.368 230.549 203.268C229.134 204.844 227.716 206.424 226.293 208H102.182Z" fill="url(#paint0_linear_2408_1616)"/>
<path d="M90.3576 95.498H85.1528V123.936H90.3576V95.498Z" fill="#41BFB4"/>
<path d="M116.699 114.526C116.697 117.02 115.704 119.412 113.938 121.177C112.172 122.941 109.777 123.934 107.279 123.936H94.639V118.704H107.279C107.838 118.72 108.395 118.624 108.917 118.422C109.438 118.219 109.914 117.914 110.315 117.524C110.716 117.135 111.035 116.669 111.253 116.154C111.471 115.639 111.583 115.086 111.583 114.527C111.583 113.969 111.471 113.415 111.253 112.901C111.035 112.386 110.716 111.92 110.315 111.531C109.914 111.141 109.438 110.836 108.917 110.633C108.395 110.431 107.838 110.335 107.279 110.351H102.743C100.244 110.346 97.8499 109.352 96.084 107.588C94.3182 105.823 93.325 103.431 93.3223 100.937V100.503C93.325 98.0081 94.3182 95.6163 96.084 93.8516C97.8499 92.0869 100.244 91.0934 102.743 91.0889H111.308V96.3173H102.743C101.632 96.3192 100.568 96.7609 99.7833 97.5457C98.9987 98.3304 98.5581 99.394 98.5581 100.503V100.937C98.5581 102.045 98.9988 103.108 99.7835 103.893C100.568 104.677 101.632 105.118 102.743 105.119H107.279C109.776 105.121 112.171 106.113 113.937 107.877C115.703 109.641 116.696 112.032 116.699 114.526Z" fill="#41BFB4"/>
<path d="M138.832 100.554C138.828 103.063 137.829 105.468 136.052 107.241C134.276 109.015 131.868 110.013 129.356 110.017H123.917V123.867H118.719V104.819H129.356C130.468 104.788 131.524 104.324 132.3 103.528C133.075 102.731 133.509 101.664 133.509 100.553C133.509 99.4418 133.075 98.3746 132.3 97.5779C131.524 96.7812 130.468 96.3179 129.356 96.2864H115.589V91.0889H129.356C131.869 91.0925 134.277 92.0911 136.054 93.8655C137.83 95.64 138.829 98.0455 138.832 100.554V100.554Z" fill="#41BFB4"/>
<path d="M157.872 91.0889C160.822 91.0445 163.742 91.6744 166.41 92.9304C168.952 94.1486 171.077 96.0897 172.518 98.5099C174.025 100.984 174.779 103.991 174.779 107.532C174.779 111.072 174.025 114.078 172.518 116.55C171.081 118.964 168.962 120.901 166.427 122.119C163.76 123.38 160.84 124.014 157.889 123.974H147.204V91.0889H157.872ZM162.905 117.469C164.587 116.716 165.993 115.459 166.927 113.872C167.947 112.213 168.458 110.099 168.458 107.532C168.458 104.964 167.947 102.85 166.927 101.191C165.98 99.595 164.562 98.3303 162.867 97.5702C161.129 96.808 159.249 96.4243 157.352 96.4447H153.402V118.57H157.352C159.26 118.596 161.152 118.221 162.905 117.469V117.469Z" fill="#184B77"/>
<path d="M184.179 96.5858H177.975V90.1492H184.179V96.5858ZM183.989 100.296V123.974H178.206V100.296H183.989Z" fill="#184B77"/>
<path d="M211.006 99.9211V125.286C211.036 126.8 210.653 128.294 209.899 129.609C209.161 130.861 208.075 131.873 206.773 132.521C205.325 133.232 203.727 133.586 202.113 133.553H190.393V128.955H201.306C202.018 128.965 202.718 128.778 203.33 128.414C203.928 128.049 204.416 127.53 204.743 126.91C205.095 126.236 205.273 125.485 205.26 124.725V121.341C204.569 122.325 203.604 123.085 202.485 123.527C201.192 124.082 199.798 124.362 198.39 124.349C196.039 124.349 194.017 123.84 192.324 122.821C190.63 121.807 189.277 120.311 188.439 118.525C187.514 116.524 187.057 114.338 187.102 112.134C187.057 109.93 187.514 107.746 188.439 105.745C189.275 103.964 190.617 102.469 192.3 101.446C194.119 100.392 196.195 99.8643 198.297 99.9211C199.689 99.9051 201.069 100.186 202.344 100.744C203.479 101.223 204.469 101.992 205.212 102.974V99.9211H211.006ZM202.585 118.477C203.569 117.869 204.354 116.987 204.843 115.94C205.37 114.741 205.642 113.445 205.642 112.135C205.642 110.825 205.37 109.53 204.843 108.33C204.354 107.283 203.569 106.401 202.585 105.793C201.562 105.185 200.388 104.876 199.197 104.902C198.013 104.874 196.846 105.183 195.833 105.793C194.864 106.405 194.095 107.287 193.623 108.33C193.111 109.534 192.848 110.828 192.848 112.135C192.848 113.443 193.111 114.737 193.623 115.94C194.095 116.984 194.864 117.866 195.833 118.477C196.846 119.087 198.013 119.397 199.197 119.369C200.388 119.395 201.562 119.086 202.585 118.477V118.477Z" fill="#184B77"/>
<path d="M222.498 96.5858H216.293V90.1492H222.498V96.5858ZM222.308 100.296V123.974H216.507V100.296H222.308Z" fill="#184B77"/>
<path d="M236.175 100.296H241.769V105.136H236.175V115.462C236.175 116.653 236.473 117.554 237.068 118.164C237.661 118.777 238.509 119.08 239.608 119.08H242.759V123.967H238.967C237.404 124.003 235.856 123.664 234.452 122.979C233.194 122.351 232.153 121.36 231.463 120.136C230.726 118.776 230.361 117.245 230.405 115.699V105.136H225.731V100.296H230.388V95.2847L236.175 93.1575V100.296Z" fill="#184B77"/>
<path d="M260.896 101.026C262.371 101.698 263.627 102.771 264.518 104.124C265.397 105.51 265.846 107.124 265.811 108.764V123.984H260.117V120.466C259.585 121.692 258.647 122.696 257.459 123.31C256.136 123.98 254.678 124.341 253.195 124.365C251.711 124.39 250.242 124.077 248.897 123.451C247.743 122.887 246.772 122.007 246.098 120.914C245.437 119.815 245.095 118.554 245.113 117.272C245.082 115.878 245.466 114.505 246.216 113.328C246.984 112.174 248.071 111.268 249.345 110.719C250.814 110.082 252.402 109.767 254.002 109.796H258.38C258.849 109.828 259.313 109.676 259.672 109.373C259.825 109.219 259.943 109.035 260.019 108.833C260.096 108.631 260.129 108.415 260.117 108.199C260.131 107.658 260.022 107.121 259.798 106.629C259.574 106.136 259.241 105.701 258.824 105.356C257.963 104.623 256.777 104.251 255.274 104.251C254.379 104.234 253.492 104.428 252.685 104.816C251.985 105.147 251.384 105.658 250.945 106.296C250.544 106.887 250.316 107.578 250.286 108.292H245.116C245.195 106.767 245.7 105.294 246.574 104.041C247.498 102.732 248.758 101.694 250.221 101.036C251.907 100.307 253.726 99.9304 255.563 99.9304C257.401 99.9304 259.22 100.307 260.906 101.036L260.896 101.026ZM257.449 119.3C258.306 118.788 258.994 118.037 259.427 117.138C259.898 116.148 260.134 115.063 260.117 113.968V113.582H254.802C253.734 113.533 252.683 113.865 251.837 114.519C251.471 114.82 251.179 115.202 250.984 115.634C250.788 116.066 250.695 116.537 250.71 117.011C250.697 117.431 250.781 117.849 250.956 118.232C251.131 118.615 251.393 118.952 251.72 119.217C252.476 119.808 253.419 120.109 254.378 120.064C255.456 120.096 256.522 119.832 257.459 119.3H257.449Z" fill="#184B77"/>
<path d="M275.442 90.1492V123.974H269.72V90.1492H275.442Z" fill="#184B77"/>
<path d="M87.49 83.1204C88.058 83.1136 88.6136 83.2863 89.0774 83.614C89.5411 83.9417 89.8891 84.4075 90.0717 84.9447L93.8184 84.9034C93.6479 83.7249 93.1492 82.618 92.3791 81.7089C91.6091 80.7998 90.5988 80.125 89.4633 79.7616C88.3279 79.3981 87.113 79.3605 85.9572 79.6531C84.8014 79.9457 83.7511 80.5568 82.9263 81.4166L85.4942 84.0325C85.7443 83.7494 86.0512 83.5219 86.395 83.3647C86.7388 83.2076 87.1119 83.1244 87.49 83.1204Z" fill="#184B77"/>
<path d="M87.549 88.5108C87.0382 88.5148 86.5365 88.3753 86.1013 88.1081L83.1611 90.4418C84.07 91.296 85.2104 91.8643 86.4404 92.0762C87.6703 92.288 88.9355 92.1339 90.0784 91.6332C91.2214 91.1324 92.1916 90.307 92.8683 89.2598C93.545 88.2125 93.8984 86.9897 93.8844 85.7434L90.2169 85.7847C90.221 86.1386 90.1553 86.4899 90.0234 86.8185C89.8915 87.147 89.6962 87.4464 89.4484 87.6996C89.2007 87.9527 88.9054 88.1547 88.5795 88.2938C88.2536 88.433 87.9035 88.5068 87.549 88.5108V88.5108Z" fill="#184B77"/>
<path d="M84.8223 85.8431C84.8153 85.4732 84.887 85.106 85.0326 84.7657L82.3819 82.0603C81.551 83.1948 81.1202 84.5725 81.157 85.9776C81.1938 87.3827 81.6961 88.736 82.5853 89.8256L85.4531 87.5469C85.0502 87.0699 84.8271 86.4671 84.8223 85.8431Z" fill="#184B77"/>
<path d="M85.6876 85.8329C85.6917 86.195 85.8033 86.5478 86.0082 86.8466C86.2131 87.1455 86.5021 87.3769 86.8387 87.5117C87.1753 87.6465 87.5444 87.6786 87.8993 87.604C88.2542 87.5293 88.5789 87.3512 88.8324 87.0923C89.086 86.8333 89.2569 86.5051 89.3237 86.1491C89.3904 85.7931 89.35 85.4254 89.2074 85.0924C89.0649 84.7594 88.8266 84.476 88.5228 84.2782C88.219 84.0804 87.8633 83.977 87.5007 83.9811C87.2599 83.9838 87.0219 84.0338 86.8005 84.1283C86.579 84.2229 86.3784 84.36 86.2101 84.532C86.0417 84.7039 85.9089 84.9073 85.8193 85.1305C85.7296 85.3538 85.6849 85.5924 85.6876 85.8329V85.8329Z" fill="#41BFB4"/>
<path d="M102.091 84.0052C101.848 84.0073 101.61 84.0814 101.409 84.2183C101.208 84.3552 101.052 84.5486 100.961 84.7741C100.869 84.9996 100.847 85.2471 100.897 85.4851C100.947 85.7232 101.066 85.9411 101.24 86.1114C101.414 86.2816 101.635 86.3965 101.874 86.4415C102.113 86.4866 102.36 86.4597 102.584 86.3642C102.808 86.2688 102.999 86.1092 103.132 85.9056C103.265 85.7019 103.335 85.4634 103.332 85.2202C103.331 85.059 103.298 84.8997 103.234 84.7513C103.171 84.6029 103.079 84.4684 102.964 84.3556C102.849 84.2427 102.712 84.1536 102.563 84.0935C102.413 84.0334 102.253 84.0034 102.091 84.0052V84.0052Z" fill="#41BFB4"/>
<path d="M76.7667 93.3159C76.5769 93.4671 76.4363 93.671 76.3626 93.902C76.2889 94.133 76.2855 94.3806 76.3528 94.6136C76.42 94.8465 76.555 95.0543 76.7406 95.2106C76.9261 95.3669 77.1539 95.4647 77.3952 95.4917C77.6365 95.5187 77.8803 95.4736 78.0959 95.3622C78.3115 95.2507 78.4891 95.0779 78.6063 94.8656C78.7236 94.6533 78.7751 94.4111 78.7544 94.1695C78.7337 93.928 78.6418 93.698 78.4901 93.5087C78.2871 93.2551 77.9915 93.0923 77.6684 93.0562C77.3452 93.0201 77.0209 93.1135 76.7667 93.3159V93.3159Z" fill="#41BFB4"/>
<path d="M76.8842 75.6513C76.7083 75.8192 76.5863 76.0356 76.5338 76.2729C76.4813 76.5103 76.5006 76.7578 76.5894 76.9841C76.6782 77.2105 76.8324 77.4053 77.0323 77.5439C77.2323 77.6825 77.469 77.7585 77.7123 77.7624C77.9557 77.7663 78.1947 77.6978 78.399 77.5657C78.6033 77.4336 78.7637 77.2438 78.8596 77.0204C78.9556 76.797 78.9829 76.5502 78.938 76.3113C78.8932 76.0724 78.7782 75.8523 78.6077 75.6788C78.3812 75.4498 78.0739 75.3185 77.7516 75.3134C77.4293 75.3082 77.1179 75.4296 76.8842 75.6513V75.6513Z" fill="#41BFB4"/>
<path d="M102.074 82.7039C101.572 82.7092 101.084 82.8637 100.671 83.1476C100.258 83.4314 99.9385 83.8318 99.7542 84.2976L95.1009 84.363C95.1009 84.363 95.0079 83.9465 95.001 83.9086C94.9596 83.7572 94.9182 83.6057 94.87 83.4543C94.7725 83.1585 94.6574 82.8689 94.5253 82.5869C94.0087 81.4693 93.2323 80.491 92.2607 79.7334C91.7737 79.3577 91.2452 79.0389 90.6855 78.7834C90.3099 78.6141 89.9215 78.4748 89.5239 78.3669C89.1236 78.2648 88.7154 78.1968 88.3037 78.1639C87.504 78.0833 86.6969 78.1205 85.9081 78.274C85.2361 78.4179 84.5859 78.6493 83.9744 78.9624C83.3899 79.2666 82.8457 79.6424 82.3543 80.0811L80.0449 77.5615C80.2853 77.027 80.3322 76.4257 80.1775 75.8606C80.0229 75.2954 79.6763 74.8015 79.1972 74.4633C78.7181 74.1251 78.1361 73.9638 77.551 74.0068C76.9659 74.0499 76.4139 74.2947 75.9896 74.6993C75.5653 75.104 75.295 75.6433 75.225 76.225C75.155 76.8068 75.2897 77.3947 75.6059 77.8882C75.9221 78.3817 76.4003 78.7501 76.9585 78.9304C77.5168 79.1106 78.1204 79.0915 78.6662 78.8764L81.1031 81.5061C80.2313 82.8018 79.7735 84.331 79.7901 85.8919C79.8068 87.4528 80.297 88.972 81.1962 90.2489L78.7834 92.08C78.2733 91.7896 77.678 91.6853 77.0994 91.7851C76.5208 91.8849 75.995 92.1826 75.6121 92.627C75.2291 93.0715 75.013 93.6352 75.0006 94.2214C74.9882 94.8076 75.1803 95.3798 75.5441 95.8401C75.9079 96.3003 76.4207 96.6198 76.9945 96.7439C77.5684 96.868 78.1676 96.7889 78.6895 96.5202C79.2114 96.2515 79.6234 95.8099 79.855 95.2711C80.0865 94.7323 80.1232 94.1299 79.9587 93.567L82.4784 91.6567C83.5694 92.5987 84.9029 93.2166 86.3277 93.4403C87.7524 93.664 89.2114 93.4845 90.5393 92.9222C91.8671 92.3599 93.0105 91.4374 93.84 90.2591C94.6694 89.0809 95.1516 87.6941 95.2319 86.2561L99.7715 86.1907C99.9462 86.6153 100.234 86.9844 100.603 87.2582C100.972 87.532 101.408 87.7002 101.866 87.7447C102.324 87.7893 102.785 87.7085 103.2 87.511C103.615 87.3135 103.968 87.0068 104.222 86.6239C104.475 86.241 104.62 85.7963 104.639 85.3376C104.659 84.8789 104.553 84.4236 104.333 84.0205C104.113 83.6175 103.787 83.2819 103.39 83.05C102.993 82.818 102.541 82.6984 102.081 82.7039H102.074ZM76.2671 77.9539C75.985 77.6628 75.7956 77.2947 75.7229 76.8961C75.6503 76.4975 75.6977 76.0864 75.8591 75.7147C76.0205 75.343 76.2886 75.0275 76.6296 74.808C76.9707 74.5885 77.3692 74.475 77.7748 74.4817C78.1805 74.4884 78.575 74.6152 78.9085 74.8459C79.242 75.0766 79.4995 75.4008 79.6484 75.7777C79.7973 76.1545 79.831 76.567 79.7451 76.963C79.6592 77.3589 79.4577 77.7205 79.166 78.0021C78.7729 78.3752 78.2489 78.5792 77.7067 78.5701C77.1645 78.5611 76.6475 78.3398 76.2671 77.9539ZM78.8144 95.8732C78.4981 96.1256 78.1139 96.2788 77.7105 96.3132C77.307 96.3477 76.9024 96.2619 76.5478 96.0668C76.1931 95.8716 75.9044 95.5758 75.7181 95.2168C75.5318 94.8578 75.4563 94.4517 75.5011 94.0498C75.546 93.6479 75.7091 93.2683 75.9699 92.9591C76.2308 92.6498 76.5776 92.4247 76.9665 92.3122C77.3555 92.1997 77.7691 92.205 78.1551 92.3272C78.541 92.4495 78.882 92.6833 79.1349 92.9991C79.4689 93.4247 79.6224 93.9641 79.5625 94.5015C79.5026 95.0389 79.234 95.5314 78.8144 95.8732V95.8732ZM94.9182 85.7364H94.7769C94.7899 87.1673 94.3784 88.5701 93.5943 89.7679C92.8103 90.9657 91.6888 91.905 90.3711 92.4674C89.0533 93.0299 87.5984 93.1902 86.1896 92.9283C84.7808 92.6665 83.4811 91.994 82.4543 90.9958L82.2578 91.1541L79.7519 93.0507C79.6816 92.9246 79.6021 92.8038 79.5141 92.6893C79.4267 92.5832 79.3311 92.4842 79.228 92.3933C79.228 92.3933 81.5236 90.6722 81.5236 90.6722L81.8856 90.3797C80.8672 89.1164 80.3009 87.5496 80.2765 85.9281C80.2522 84.3066 80.7712 82.7235 81.7511 81.4304C81.7511 81.4304 81.7029 81.3822 81.7098 81.3753L79.1591 78.6216C79.2822 78.5419 79.3976 78.4509 79.5038 78.3497C79.6007 78.2531 79.6906 78.1495 79.7726 78.0399L81.9855 80.4494L82.2165 80.6869L82.313 80.7936L82.3785 80.7247C83.3327 79.7551 84.5415 79.0738 85.866 78.7592C87.1905 78.4446 88.577 78.5093 89.8663 78.946C91.1556 79.3828 92.2954 80.1737 93.1549 81.2281C94.0144 82.2825 94.5586 83.5575 94.7252 84.9068C94.7252 84.9068 95.194 84.9068 95.194 84.9068L99.6163 84.8414C99.5939 84.9849 99.5835 85.1299 99.5853 85.2751C99.5874 85.4124 99.6001 85.5494 99.6232 85.6847L94.9182 85.7364ZM102.126 87.2784C101.72 87.2825 101.322 87.1662 100.983 86.9445C100.643 86.7227 100.377 86.4053 100.218 86.0324C100.059 85.6596 100.014 85.2481 100.09 84.8499C100.165 84.4518 100.357 84.0849 100.642 83.7958C100.926 83.5066 101.29 83.3082 101.687 83.2255C102.084 83.1429 102.497 83.1797 102.873 83.3315C103.249 83.4832 103.572 83.743 103.8 84.078C104.029 84.4129 104.152 84.808 104.156 85.2132C104.159 85.482 104.108 85.7486 104.008 85.998C103.907 86.2473 103.758 86.4744 103.57 86.6662C103.381 86.858 103.156 87.0108 102.909 87.1159C102.661 87.2209 102.395 87.2761 102.126 87.2784V87.2784Z" fill="#41BFB4"/>
<defs>
<linearGradient id="paint0_linear_2408_1616" x1="169.5" y1="0" x2="169.5" y2="208" gradientUnits="userSpaceOnUse">
<stop stop-color="white"/>
<stop offset="1" stop-color="white" stop-opacity="0"/>
</linearGradient>
</defs>
</svg>
