<svg width="350" height="208" viewBox="0 0 350 208" fill="none" xmlns="http://www.w3.org/2000/svg">
<rect width="350" height="208" rx="8" fill="#F6F8FA"/>
<path d="M350 169C329.652 158.236 309.339 147.471 293.782 135.7C278.261 123.929 267.531 111.15 249.579 100.421C231.627 89.7259 206.487 81.0797 193.848 64.6902C181.208 48.3006 181.104 24.1329 181 0H334C342.837 0 350 7.16344 350 16V169Z" fill="url(#paint0_linear_2408_1784)"/>
<path d="M0 39C23.1581 43.0279 46.2815 47.0559 61.3847 59.7995C76.4878 72.5431 83.5359 93.9675 100.167 107.822C116.798 121.677 143.046 127.893 156.135 143.31C169.19 158.762 169.086 183.381 168.981 208H16C7.16345 208 0 200.837 0 192V39Z" fill="url(#paint1_linear_2408_1784)"/>
<path d="M142.55 124.561L163.152 99.9075V92.7996H133.746V99.9075H153.822L133.166 124.561V131.665H163.206V124.561H142.55Z" fill="#194F7D"/>
<path d="M177.198 92.7996L192.803 118.561V92.7996H201.13V131.665H192.247L176.642 105.904V131.665H168.315V92.7996H177.198Z" fill="#194F7D"/>
<path d="M214.787 92.7996V131.665H206.401V92.7996H214.787Z" fill="#194F7D"/>
<path d="M127.919 91.3191C125.597 93.3594 122.839 95.6651 119.675 98.0994V131.69H128.06V91.3191H127.919Z" fill="#194F7D"/>
<path d="M237.073 92.7996L240.908 99.9614H228.468V108.624H239.847L243.84 115.84H228.48V131.665H220.153V92.7996H237.073Z" fill="#194F7D"/>
<path d="M241.128 92.7996H250.069L258.566 107.791L267.059 92.7996H276L262.73 115.562V131.665H254.361V115.562L241.128 92.7996Z" fill="#194F7D"/>
<path d="M112.36 108.056C110.826 105.987 108.747 104.385 106.355 103.428C103.37 105.336 100.168 107.214 96.7841 108.993C101.727 109.35 104.199 111.537 104.199 115.554C104.199 117.681 103.465 119.286 102.001 120.381C100.537 121.476 98.306 122.015 95.2829 122.015H85.9937V114.036C82.402 115.511 78.7319 116.788 75 117.86V131.669H96.2409C99.5621 131.735 102.861 131.115 105.932 129.849C108.589 128.749 110.861 126.89 112.464 124.503C114.027 122.156 114.803 119.365 114.803 116.151C114.803 112.937 113.994 110.229 112.36 108.056Z" fill="#194F7D"/>
<path d="M110.046 85.8118C108.57 83.7593 106.535 82.1755 104.182 81.2501C101.477 80.1717 98.5843 79.6417 95.6725 79.6909H75.0122V94.4044C76.765 94.5509 78.5371 94.6242 80.3286 94.6242C82.2404 94.6242 84.1356 94.5412 86.0059 94.3878V88.5239H94.6191C98.2132 88.5239 100.458 89.5469 101.354 91.5927C104.729 90.6484 108.051 89.5257 111.307 88.2295C110.983 87.3766 110.56 86.5651 110.046 85.8118Z" fill="#194F7D"/>
<path d="M131.196 80.4165C131.179 80.4306 131.164 80.4458 131.15 80.4621C130.478 81.1837 123.18 89.0505 111.245 97.5145C110.017 98.3854 108.741 99.2604 107.417 100.14C102.493 103.418 97.353 106.36 92.0317 108.944C90.0826 109.897 88.063 110.806 85.9937 111.664C82.4037 113.163 78.7336 114.461 75 115.554V96.6271C78.6586 96.9216 82.335 96.9216 85.9937 96.6271C91.3375 96.1818 96.6268 95.2278 101.79 93.7781C104.838 92.9487 107.72 91.9741 110.411 90.954C110.913 90.7715 111.402 90.5766 111.887 90.3859C118.641 87.7644 125.1 84.4367 131.154 80.458C131.154 80.458 131.196 80.4248 131.196 80.4165Z" fill="#03978F"/>
<path d="M137.051 76L127.127 78.2891L131.511 80.2299L132.212 84.945L137.051 76Z" fill="#00ACA3"/>
<path d="M137.051 76L132.212 84.945L131.511 80.2299L137.051 76Z" fill="url(#paint2_linear_2408_1784)"/>
<path d="M137.051 76L132.212 84.945L131.511 80.2299L137.051 76Z" fill="#03978F"/>
<path d="M131.167 80.4456C125.263 85.4273 118.883 89.8153 112.119 93.5459C111.12 94.0974 110.092 94.6531 109.034 95.2047C99.4545 100.152 87.5693 104.585 75.0288 105.157V96.6271C78.6874 96.9216 82.3638 96.9216 86.0225 96.6271C91.3664 96.1818 96.6556 95.2278 101.818 93.7781C104.866 92.9487 107.749 91.9742 110.44 90.954C110.942 90.7715 111.431 90.5766 111.916 90.3859C118.665 87.7594 125.118 84.4275 131.167 80.4456Z" fill="#00ACA3"/>
<defs>
<linearGradient id="paint0_linear_2408_1784" x1="265.5" y1="0" x2="265.5" y2="169" gradientUnits="userSpaceOnUse">
<stop stop-color="white"/>
<stop offset="1" stop-color="white" stop-opacity="0"/>
</linearGradient>
<linearGradient id="paint1_linear_2408_1784" x1="84.5" y1="39" x2="84.5" y2="208" gradientUnits="userSpaceOnUse">
<stop stop-color="white"/>
<stop offset="1" stop-color="white" stop-opacity="0"/>
</linearGradient>
<linearGradient id="paint2_linear_2408_1784" x1="136.799" y1="70.1874" x2="130.145" y2="81.9351" gradientUnits="userSpaceOnUse">
<stop stop-color="#27C1DE"/>
<stop offset="0.99" stop-color="#5767B0"/>
</linearGradient>
</defs>
</svg>
