<svg width="350" height="208" viewBox="0 0 350 208" fill="none" xmlns="http://www.w3.org/2000/svg">
<rect width="350" height="208" rx="8" fill="#F6F8FA"/>
<path d="M350 169C326.318 168.618 302.602 168.201 285.31 156.152C268.017 144.103 257.149 120.387 248.364 101.636C239.544 82.9201 232.877 69.1348 222.009 53.023C211.105 36.9112 196.035 18.4383 181 0H334C342.837 0 350 7.16344 350 16V169Z" fill="url(#paint0_linear_2408_1769)"/>
<path d="M0 39C15.834 57.5772 31.7027 76.1543 51.8077 82.8907C71.9474 89.6271 96.3581 84.5227 115.387 92.6133C134.45 100.669 148.096 121.885 156.152 143.31C164.208 164.734 166.604 186.367 169 208H16C7.16344 208 0 200.837 0 192V39Z" fill="url(#paint1_linear_2408_1769)"/>
<g clip-path="url(#clip0_2408_1769)">
<path d="M105.28 90.5098L119.635 68H92.9577L74.9502 96.0663H95.292L80.9527 118.576H107.63L125.521 90.5098H105.28ZM96.009 73.69H109.348L98.6934 90.3763H85.4546L96.009 73.69ZM104.563 112.886H91.307L101.961 96.1998H115.3L104.563 112.886Z" fill="#41BFB4"/>
<path d="M133.308 93.9806C133.308 78.6459 142.028 69.385 155.8 69.385C167.238 69.385 175.925 76.6435 176.692 87.2894H166.988C166.654 84.5738 165.321 82.0801 163.25 80.2941C161.178 78.5081 158.517 77.5577 155.784 77.628C148.281 77.628 143.429 83.9354 143.429 93.9472C143.429 103.959 148.214 110.366 155.817 110.366C158.48 110.517 161.104 109.669 163.176 107.988C165.248 106.306 166.619 103.912 167.022 101.272H176.659C175.542 111.885 167.405 118.609 155.734 118.609C141.945 118.576 133.308 109.315 133.308 93.9806Z" fill="#393E46"/>
<path d="M192.099 117.758H182.095V70.1858H201.67C212.607 70.1858 218.877 75.9425 218.877 85.3536C218.995 88.2207 218.23 91.0549 216.685 93.4725C215.14 95.89 212.89 97.774 210.24 98.8694L220.244 117.758H208.973L200.119 100.338H192.132L192.099 117.758ZM192.099 93.1294H200.669C205.671 93.1294 208.606 90.2593 208.606 85.5371C208.606 80.8149 205.521 77.9616 200.569 77.9616H192.099V93.1294Z" fill="#393E46"/>
<path d="M266.146 117.758V85.6373H265.879L252.957 117.341H246.688L233.783 85.6373H233.516V117.758H224.646V70.1858H236.184L249.689 103.909H250.023L263.528 70.1858H275.033V117.758H266.146Z" fill="#393E46"/>
<path d="M77.1343 131.742C77.1343 128.788 78.8017 126.886 81.3694 126.886C82.2907 126.828 83.2005 127.116 83.9216 127.693C84.6428 128.27 85.1238 129.094 85.271 130.006H84.0872C83.9379 129.405 83.5859 128.875 83.0906 128.504C82.5954 128.133 81.9874 127.944 81.3694 127.97C79.5353 127.97 78.3514 129.456 78.3514 131.742C78.3514 134.028 79.5186 135.513 81.3861 135.513C81.9738 135.563 82.5612 135.413 83.052 135.085C83.5428 134.758 83.9078 134.273 84.0872 133.711H85.271C85.0901 134.588 84.592 135.368 83.872 135.901C83.152 136.433 82.2608 136.681 81.3694 136.597C78.785 136.597 77.1343 134.712 77.1343 131.742Z" fill="#393E46"/>
<path d="M91.9072 136.447H90.8401V135.346C90.6428 135.739 90.333 136.065 89.95 136.282C89.5669 136.499 89.1281 136.597 88.6892 136.564C88.3623 136.583 88.0351 136.531 87.7308 136.41C87.4264 136.289 87.1524 136.102 86.9281 135.863C86.7038 135.624 86.5347 135.339 86.4328 135.028C86.3308 134.716 86.2986 134.386 86.3382 134.061V129.656H87.472V133.861C87.472 134.962 87.9889 135.529 89.0394 135.529C89.2893 135.547 89.54 135.509 89.773 135.416C90.006 135.324 90.2151 135.18 90.3849 134.996C90.5548 134.811 90.6809 134.591 90.7539 134.351C90.8269 134.111 90.845 133.858 90.8068 133.61V129.622H91.9406L91.9072 136.447Z" fill="#393E46"/>
<path d="M95.6421 129.539C96.2345 129.473 96.8287 129.645 97.2945 130.018C97.7602 130.39 98.0594 130.932 98.1264 131.525H97.0426C97.0426 130.874 96.4424 130.473 95.6087 130.473C94.775 130.473 94.2415 130.89 94.2415 131.474C94.2415 132.058 94.5916 132.259 95.3586 132.459L96.409 132.709C97.7763 133.06 98.2765 133.544 98.2765 134.545C98.2765 135.546 97.1593 136.564 95.5754 136.564C94.9602 136.636 94.3413 136.465 93.8496 136.088C93.3579 135.711 93.032 135.158 92.9409 134.545H94.0747C94.1915 135.262 94.725 135.629 95.6421 135.629C96.5591 135.629 97.1427 135.246 97.1427 134.628C97.1427 134.011 96.8592 133.894 96.0922 133.677L94.9084 133.377C93.7079 133.076 93.1243 132.459 93.1243 131.541C93.1243 130.623 94.1581 129.539 95.6421 129.539Z" fill="#393E46"/>
<path d="M100.811 128.02V129.689H102.128V130.623H100.811V134.661C100.811 135.279 101.077 135.563 101.644 135.563H102.128V136.514C101.889 136.535 101.649 136.535 101.411 136.514C100.16 136.514 99.7436 135.996 99.7436 134.695V130.607H98.7432V129.672H99.7436V128.004L100.811 128.02Z" fill="#393E46"/>
<path d="M102.678 133.06C102.746 132.455 102.987 131.882 103.372 131.411C103.758 130.941 104.271 130.591 104.85 130.406C105.43 130.221 106.05 130.207 106.637 130.367C107.224 130.527 107.752 130.853 108.158 131.307C108.564 131.76 108.83 132.321 108.924 132.923C109.018 133.524 108.936 134.14 108.688 134.696C108.44 135.251 108.036 135.724 107.526 136.055C107.016 136.387 106.421 136.563 105.813 136.564C105.368 136.567 104.929 136.475 104.522 136.295C104.116 136.115 103.752 135.851 103.456 135.519C103.159 135.188 102.937 134.797 102.803 134.373C102.669 133.949 102.626 133.501 102.678 133.06ZM107.797 133.06C107.797 131.391 107.013 130.54 105.813 130.54C104.612 130.54 103.829 131.458 103.829 133.06C103.829 134.662 104.612 135.563 105.813 135.563C107.013 135.563 107.797 134.645 107.797 133.06Z" fill="#393E46"/>
<path d="M109.964 129.656H111.031V130.69C111.195 130.321 111.464 130.009 111.806 129.795C112.148 129.581 112.546 129.474 112.949 129.489C113.364 129.471 113.774 129.588 114.116 129.822C114.459 130.057 114.716 130.397 114.85 130.79C115.034 130.388 115.334 130.05 115.711 129.818C116.088 129.586 116.525 129.472 116.967 129.489C117.262 129.472 117.557 129.517 117.833 129.623C118.109 129.729 118.36 129.892 118.568 130.102C118.776 130.312 118.937 130.563 119.041 130.84C119.144 131.117 119.188 131.413 119.168 131.708V136.397H118.034V132.025C118.06 131.832 118.042 131.636 117.982 131.45C117.921 131.265 117.82 131.096 117.686 130.955C117.552 130.814 117.387 130.705 117.205 130.636C117.023 130.567 116.828 130.54 116.634 130.557C116.419 130.551 116.206 130.591 116.008 130.674C115.81 130.758 115.632 130.883 115.487 131.041C115.341 131.199 115.232 131.387 115.165 131.591C115.098 131.796 115.076 132.012 115.1 132.225V136.53H113.966V131.975C113.974 131.793 113.943 131.612 113.875 131.443C113.808 131.275 113.705 131.122 113.574 130.996C113.443 130.87 113.287 130.773 113.116 130.712C112.945 130.65 112.763 130.626 112.582 130.64C112.368 130.64 112.157 130.683 111.96 130.768C111.764 130.854 111.588 130.979 111.442 131.135C111.297 131.292 111.185 131.477 111.114 131.679C111.044 131.881 111.015 132.095 111.031 132.309V136.564H109.964V129.656Z" fill="#393E46"/>
<path d="M126.138 134.495C125.992 135.119 125.628 135.671 125.111 136.051C124.595 136.43 123.959 136.612 123.32 136.564C122.875 136.575 122.433 136.49 122.025 136.313C121.617 136.137 121.252 135.873 120.955 135.542C120.658 135.21 120.437 134.818 120.307 134.392C120.177 133.966 120.141 133.517 120.202 133.076C120.145 132.638 120.182 132.192 120.31 131.768C120.438 131.345 120.654 130.953 120.944 130.619C121.233 130.285 121.59 130.016 121.991 129.83C122.392 129.644 122.828 129.545 123.27 129.539C123.69 129.541 124.106 129.631 124.489 129.805C124.872 129.978 125.214 130.231 125.492 130.546C125.771 130.861 125.98 131.232 126.105 131.633C126.231 132.035 126.27 132.458 126.221 132.876V133.31H121.369C121.338 133.585 121.366 133.863 121.452 134.126C121.537 134.388 121.677 134.63 121.864 134.834C122.05 135.038 122.278 135.199 122.532 135.308C122.786 135.416 123.06 135.469 123.337 135.462C123.694 135.485 124.049 135.391 124.349 135.196C124.65 135.001 124.879 134.714 125.004 134.378L126.138 134.495ZM121.369 132.476H125.054C125.072 132.231 125.041 131.986 124.962 131.754C124.883 131.522 124.758 131.309 124.594 131.126C124.431 130.944 124.232 130.797 124.01 130.693C123.788 130.589 123.548 130.532 123.303 130.523C123.047 130.519 122.792 130.566 122.554 130.663C122.316 130.76 122.1 130.904 121.919 131.086C121.739 131.268 121.597 131.486 121.502 131.724C121.408 131.963 121.362 132.219 121.369 132.476Z" fill="#393E46"/>
<path d="M127.222 129.656H128.305V130.774C128.403 130.41 128.621 130.09 128.924 129.865C129.227 129.641 129.596 129.526 129.973 129.539C130.123 129.526 130.273 129.526 130.423 129.539V130.69C130.224 130.664 130.022 130.664 129.823 130.69C129.611 130.686 129.401 130.727 129.207 130.812C129.013 130.897 128.841 131.024 128.701 131.183C128.561 131.342 128.458 131.529 128.398 131.733C128.338 131.936 128.324 132.15 128.355 132.359V136.581H127.222V129.656Z" fill="#393E46"/>
<path d="M135.158 136.447H133.991V127.036H137.509C137.896 126.998 138.286 127.043 138.654 127.167C139.022 127.292 139.359 127.493 139.643 127.759C139.927 128.024 140.151 128.347 140.301 128.705C140.45 129.064 140.522 129.451 140.511 129.839C140.537 130.437 140.365 131.026 140.021 131.515C139.677 132.005 139.181 132.366 138.61 132.542L140.794 136.447H139.41L137.409 132.726H135.158V136.447ZM135.158 131.691H137.409C137.659 131.725 137.913 131.702 138.152 131.624C138.392 131.546 138.611 131.414 138.792 131.239C138.973 131.064 139.113 130.85 139.199 130.613C139.286 130.377 139.318 130.123 139.293 129.873C139.315 129.619 139.278 129.365 139.186 129.128C139.094 128.892 138.949 128.679 138.762 128.507C138.576 128.335 138.352 128.207 138.109 128.135C137.866 128.062 137.61 128.046 137.359 128.087H135.158V131.691Z" fill="#393E46"/>
<path d="M147.28 134.495C147.131 135.118 146.767 135.668 146.25 136.047C145.734 136.426 145.101 136.609 144.462 136.564C144.017 136.575 143.575 136.489 143.165 136.313C142.756 136.136 142.39 135.874 142.093 135.542C141.795 135.211 141.572 134.819 141.44 134.393C141.308 133.967 141.27 133.518 141.327 133.076C141.271 132.638 141.308 132.192 141.436 131.768C141.564 131.345 141.779 130.953 142.069 130.619C142.359 130.285 142.716 130.016 143.117 129.83C143.518 129.644 143.953 129.545 144.395 129.539C144.817 129.538 145.234 129.627 145.619 129.8C146.004 129.972 146.348 130.225 146.629 130.54C146.909 130.855 147.12 131.227 147.246 131.629C147.373 132.032 147.413 132.457 147.363 132.876V133.31H142.495C142.463 133.586 142.492 133.866 142.578 134.13C142.664 134.394 142.807 134.636 142.995 134.84C143.183 135.044 143.413 135.206 143.669 135.313C143.925 135.42 144.201 135.471 144.479 135.462C144.836 135.485 145.191 135.391 145.492 135.196C145.792 135.001 146.021 134.714 146.146 134.378L147.28 134.495ZM142.511 132.476H146.179C146.198 132.227 146.165 131.978 146.083 131.742C146.001 131.507 145.871 131.291 145.702 131.108C145.534 130.925 145.329 130.779 145.101 130.678C144.874 130.578 144.628 130.525 144.379 130.523C144.128 130.528 143.88 130.582 143.65 130.682C143.42 130.783 143.212 130.928 143.038 131.11C142.865 131.291 142.729 131.506 142.638 131.74C142.548 131.974 142.505 132.224 142.511 132.476Z" fill="#393E46"/>
<path d="M148.431 127.036H149.564V136.447H148.431V127.036Z" fill="#393E46"/>
<path d="M150.682 134.528C150.682 133.36 151.565 132.642 153.133 132.542L155.084 132.426V131.875C155.09 131.685 155.055 131.495 154.981 131.32C154.907 131.145 154.795 130.988 154.653 130.86C154.512 130.733 154.344 130.639 154.162 130.583C153.98 130.528 153.788 130.513 153.6 130.54C153.25 130.494 152.896 130.579 152.607 130.779C152.317 130.98 152.112 131.281 152.032 131.625H150.932C150.971 131.311 151.071 131.009 151.228 130.734C151.384 130.459 151.592 130.218 151.842 130.025C152.091 129.831 152.376 129.688 152.681 129.605C152.985 129.522 153.303 129.499 153.616 129.539C155.2 129.539 156.217 130.407 156.217 131.758V136.447H155.134V135.279C154.915 135.667 154.598 135.991 154.215 136.216C153.831 136.442 153.394 136.562 152.949 136.564C152.663 136.597 152.373 136.569 152.099 136.481C151.825 136.394 151.572 136.249 151.357 136.057C151.143 135.864 150.972 135.629 150.856 135.365C150.739 135.102 150.68 134.816 150.682 134.528ZM155.084 133.861V133.31L153.266 133.427C152.349 133.427 151.832 133.894 151.832 134.528C151.832 135.162 152.382 135.596 153.183 135.596C153.422 135.609 153.661 135.575 153.887 135.495C154.113 135.414 154.321 135.29 154.498 135.128C154.675 134.966 154.818 134.771 154.918 134.553C155.019 134.336 155.075 134.1 155.084 133.861Z" fill="#393E46"/>
<path d="M159.018 128.02V129.689H160.336V130.623H159.018V134.661C159.018 135.279 159.268 135.563 159.852 135.563H160.319V136.514C160.08 136.535 159.84 136.535 159.602 136.514C158.368 136.514 157.935 135.996 157.935 134.695V130.607H156.917V129.672H157.935V128.004L159.018 128.02Z" fill="#393E46"/>
<path d="M161.319 127.82C161.345 127.651 161.431 127.496 161.561 127.385C161.691 127.273 161.857 127.212 162.028 127.212C162.199 127.212 162.365 127.273 162.495 127.385C162.625 127.496 162.711 127.651 162.737 127.82C162.711 127.99 162.625 128.144 162.495 128.256C162.365 128.367 162.199 128.429 162.028 128.429C161.857 128.429 161.691 128.367 161.561 128.256C161.431 128.144 161.345 127.99 161.319 127.82ZM161.453 129.656H162.587V136.447H161.453V129.656Z" fill="#393E46"/>
<path d="M163.653 133.06C163.721 132.455 163.961 131.884 164.346 131.413C164.731 130.943 165.243 130.593 165.822 130.407C166.4 130.221 167.02 130.207 167.606 130.365C168.193 130.524 168.721 130.848 169.128 131.3C169.534 131.752 169.801 132.312 169.897 132.912C169.993 133.513 169.913 134.128 169.668 134.684C169.422 135.24 169.022 135.714 168.514 136.047C168.006 136.381 167.412 136.56 166.805 136.564C166.359 136.569 165.917 136.479 165.509 136.3C165.1 136.121 164.735 135.857 164.437 135.525C164.138 135.194 163.914 134.802 163.779 134.377C163.644 133.952 163.601 133.503 163.653 133.06ZM168.772 133.06C168.772 131.391 167.989 130.54 166.805 130.54C165.621 130.54 164.804 131.458 164.804 133.06C164.804 134.661 165.604 135.563 166.805 135.563C168.005 135.563 168.772 134.645 168.772 133.06Z" fill="#393E46"/>
<path d="M170.94 129.656H172.007V130.69C172.215 130.307 172.528 129.99 172.908 129.777C173.289 129.565 173.723 129.465 174.158 129.489C174.485 129.469 174.812 129.522 175.116 129.643C175.421 129.764 175.695 129.951 175.919 130.189C176.143 130.428 176.313 130.713 176.414 131.025C176.516 131.336 176.549 131.666 176.509 131.992V136.397H175.375V132.192C175.375 131.107 174.858 130.523 173.825 130.523C173.576 130.506 173.327 130.544 173.096 130.636C172.864 130.727 172.656 130.869 172.486 131.052C172.317 131.234 172.19 131.452 172.116 131.69C172.042 131.928 172.022 132.179 172.057 132.426V136.414H170.923L170.94 129.656Z" fill="#393E46"/>
<path d="M180.244 129.539C180.836 129.478 181.428 129.652 181.892 130.023C182.357 130.394 182.657 130.934 182.728 131.525H181.661C181.578 130.874 181.044 130.473 180.211 130.473C179.377 130.473 178.844 130.89 178.844 131.474C178.844 132.059 179.21 132.259 179.977 132.459L181.011 132.709C182.395 133.06 182.879 133.544 182.879 134.545C182.879 135.546 181.761 136.564 180.177 136.564C179.562 136.636 178.943 136.465 178.452 136.088C177.96 135.711 177.634 135.158 177.543 134.545H178.677C178.81 135.262 179.344 135.629 180.344 135.629C181.345 135.629 181.828 135.246 181.828 134.628C181.828 134.011 181.545 133.894 180.778 133.677L179.594 133.377C178.393 133.076 177.81 132.459 177.81 131.541C177.81 130.623 178.743 129.539 180.244 129.539Z" fill="#393E46"/>
<path d="M183.962 127.036H185.096V130.69C185.296 130.304 185.605 129.984 185.984 129.771C186.363 129.557 186.796 129.459 187.23 129.489C187.559 129.473 187.887 129.528 188.193 129.651C188.499 129.773 188.774 129.961 189.001 130.2C189.227 130.439 189.399 130.725 189.505 131.037C189.611 131.349 189.648 131.681 189.614 132.008V136.397H188.48V132.359C188.48 131.274 187.947 130.69 186.813 130.69C186.561 130.679 186.31 130.723 186.077 130.818C185.843 130.913 185.633 131.057 185.461 131.241C185.288 131.425 185.157 131.643 185.077 131.882C184.997 132.121 184.969 132.375 184.996 132.626V136.58H183.862L183.962 127.036Z" fill="#393E46"/>
<path d="M190.882 127.82C190.908 127.651 190.994 127.496 191.124 127.385C191.254 127.273 191.419 127.212 191.59 127.212C191.762 127.212 191.927 127.273 192.057 127.385C192.187 127.496 192.273 127.651 192.299 127.82C192.273 127.99 192.187 128.144 192.057 128.256C191.927 128.367 191.762 128.429 191.59 128.429C191.419 128.429 191.254 128.367 191.124 128.256C190.994 128.144 190.908 127.99 190.882 127.82ZM191.015 129.656H192.149V136.447H191.015V129.656Z" fill="#393E46"/>
<path d="M199.735 133.06C199.735 135.179 198.568 136.564 196.867 136.564C196.432 136.577 196.001 136.47 195.622 136.255C195.243 136.041 194.929 135.726 194.716 135.346V138.683H193.583V129.639H194.666V130.79C194.881 130.401 195.198 130.077 195.583 129.853C195.967 129.63 196.406 129.515 196.851 129.522C198.568 129.539 199.735 130.924 199.735 133.06ZM198.585 133.06C198.585 131.525 197.818 130.54 196.617 130.54C195.417 130.54 194.683 131.541 194.683 133.06C194.683 134.578 195.467 135.563 196.617 135.563C197.768 135.563 198.585 134.595 198.585 133.06Z" fill="#393E46"/>
<path d="M211.674 136.447V129.188L208.689 136.38H207.689L204.704 129.188V136.447H203.604V127.036H204.971L208.205 134.878L211.457 127.036H212.824V136.447H211.674Z" fill="#393E46"/>
<path d="M213.825 134.528C213.825 133.36 214.725 132.642 216.292 132.542L218.227 132.426V131.875C218.233 131.685 218.198 131.495 218.124 131.32C218.05 131.145 217.938 130.988 217.796 130.86C217.655 130.733 217.487 130.638 217.305 130.583C217.123 130.528 216.931 130.513 216.743 130.54C216.394 130.497 216.042 130.584 215.753 130.784C215.464 130.984 215.258 131.283 215.175 131.625H214.091C214.091 130.44 215.159 129.539 216.776 129.539C218.393 129.539 219.36 130.407 219.36 131.758V136.447H218.343V135.279C218.129 135.667 217.815 135.991 217.434 136.217C217.053 136.443 216.619 136.562 216.176 136.564C215.884 136.607 215.586 136.587 215.303 136.504C215.019 136.422 214.757 136.279 214.534 136.086C214.31 135.892 214.132 135.653 214.009 135.384C213.887 135.115 213.824 134.823 213.825 134.528ZM218.227 133.861V133.31L216.409 133.427C215.509 133.427 214.975 133.894 214.975 134.528C214.975 135.162 215.525 135.596 216.342 135.596C216.581 135.609 216.82 135.575 217.044 135.494C217.269 135.414 217.476 135.289 217.651 135.127C217.827 134.965 217.968 134.77 218.067 134.552C218.166 134.335 218.22 134.099 218.227 133.861Z" fill="#393E46"/>
<path d="M220.661 129.656H221.678V130.69C221.886 130.307 222.198 129.99 222.579 129.777C222.96 129.565 223.393 129.465 223.829 129.489C224.154 129.472 224.479 129.526 224.782 129.649C225.084 129.771 225.356 129.958 225.578 130.196C225.801 130.435 225.968 130.719 226.069 131.029C226.17 131.339 226.202 131.668 226.163 131.992V136.397H225.029V132.192C225.029 131.107 224.529 130.523 223.478 130.523C223.23 130.506 222.981 130.544 222.749 130.636C222.518 130.727 222.31 130.869 222.14 131.052C221.971 131.234 221.844 131.452 221.77 131.69C221.696 131.928 221.675 132.179 221.711 132.426V136.414H220.577L220.661 129.656Z" fill="#393E46"/>
<path d="M227.28 134.528C227.28 133.36 228.181 132.643 229.748 132.542L231.682 132.359V131.808C231.689 131.618 231.654 131.428 231.58 131.253C231.505 131.078 231.393 130.921 231.252 130.794C231.11 130.666 230.943 130.572 230.761 130.516C230.579 130.461 230.387 130.446 230.198 130.473C229.85 130.431 229.497 130.518 229.208 130.717C228.92 130.917 228.714 131.216 228.631 131.558H227.547C227.547 130.373 228.614 129.472 230.232 129.472C231.849 129.472 232.816 130.34 232.816 131.691V136.38H231.682V135.212C231.468 135.6 231.154 135.924 230.773 136.15C230.392 136.376 229.958 136.496 229.515 136.497C229.237 136.522 228.957 136.49 228.693 136.404C228.428 136.317 228.184 136.178 227.974 135.993C227.765 135.809 227.596 135.584 227.477 135.332C227.357 135.08 227.29 134.807 227.28 134.528ZM231.682 133.861V133.31L229.865 133.427C228.964 133.427 228.447 133.894 228.447 134.528C228.447 135.162 228.981 135.596 229.798 135.596C230.036 135.61 230.275 135.575 230.5 135.494C230.725 135.414 230.931 135.289 231.107 135.127C231.283 134.965 231.424 134.77 231.523 134.552C231.622 134.335 231.676 134.1 231.682 133.861Z" fill="#393E46"/>
<path d="M234.05 136.998H235.217C235.369 137.328 235.618 137.604 235.931 137.789C236.244 137.974 236.605 138.059 236.968 138.032C237.204 138.063 237.445 138.043 237.673 137.973C237.901 137.903 238.111 137.785 238.289 137.627C238.468 137.469 238.611 137.274 238.708 137.056C238.805 136.838 238.854 136.602 238.852 136.364V135.296C238.632 135.674 238.315 135.986 237.934 136.2C237.553 136.414 237.121 136.523 236.684 136.514C235.017 136.514 233.816 135.145 233.816 133.043C233.816 130.94 234.95 129.556 236.701 129.556C237.149 129.546 237.59 129.659 237.978 129.882C238.366 130.106 238.686 130.431 238.902 130.824V129.672H240.019V136.347C239.926 137.025 239.609 137.654 239.12 138.132C238.631 138.611 237.996 138.914 237.316 138.992C236.636 139.071 235.95 138.92 235.364 138.565C234.779 138.21 234.328 137.67 234.083 137.031L234.05 136.998ZM238.852 133.026C238.852 131.541 238.051 130.54 236.884 130.54C235.717 130.54 234.95 131.508 234.95 133.026C234.95 134.545 235.717 135.496 236.884 135.496C238.051 135.496 238.852 134.511 238.852 133.026Z" fill="#393E46"/>
<path d="M246.921 134.495C246.776 135.119 246.412 135.671 245.895 136.051C245.378 136.43 244.743 136.612 244.104 136.564C243.66 136.572 243.219 136.485 242.812 136.307C242.405 136.13 242.041 135.867 241.745 135.536C241.449 135.205 241.228 134.814 241.097 134.389C240.966 133.965 240.928 133.517 240.986 133.076C240.929 132.638 240.966 132.192 241.094 131.768C241.222 131.345 241.438 130.953 241.727 130.619C242.017 130.285 242.374 130.016 242.775 129.83C243.176 129.644 243.612 129.545 244.054 129.539C245.888 129.539 247.005 130.874 247.005 132.876V133.31H242.153C242.122 133.586 242.15 133.866 242.236 134.13C242.323 134.394 242.465 134.636 242.653 134.84C242.841 135.044 243.071 135.206 243.327 135.313C243.583 135.42 243.859 135.471 244.137 135.462C244.494 135.485 244.85 135.391 245.15 135.196C245.45 135.001 245.68 134.714 245.804 134.378L246.921 134.495ZM242.153 132.476H245.838C245.856 132.227 245.823 131.978 245.741 131.742C245.659 131.507 245.529 131.291 245.361 131.108C245.192 130.925 244.987 130.779 244.759 130.678C244.532 130.578 244.286 130.525 244.037 130.523C243.784 130.525 243.535 130.578 243.303 130.678C243.071 130.777 242.861 130.922 242.686 131.104C242.51 131.286 242.373 131.501 242.281 131.736C242.19 131.972 242.146 132.223 242.153 132.476Z" fill="#393E46"/>
<path d="M248.022 129.656H249.089V130.69C249.254 130.323 249.524 130.012 249.866 129.798C250.207 129.584 250.604 129.477 251.007 129.489C251.424 129.47 251.836 129.586 252.182 129.821C252.527 130.055 252.788 130.395 252.924 130.79C253.11 130.389 253.411 130.052 253.787 129.821C254.164 129.589 254.6 129.474 255.042 129.489C255.338 129.469 255.635 129.513 255.913 129.618C256.191 129.722 256.443 129.885 256.653 130.095C256.863 130.305 257.026 130.558 257.131 130.836C257.235 131.114 257.279 131.412 257.259 131.708V136.397H256.125V132.025C256.148 131.831 256.128 131.635 256.066 131.449C256.003 131.264 255.9 131.095 255.765 130.955C255.629 130.814 255.464 130.706 255.281 130.637C255.099 130.568 254.903 130.541 254.708 130.557C254.494 130.55 254.281 130.59 254.084 130.674C253.887 130.758 253.71 130.883 253.566 131.042C253.422 131.2 253.314 131.388 253.249 131.593C253.184 131.797 253.164 132.013 253.191 132.225V136.531H252.057V131.975C252.065 131.794 252.034 131.612 251.966 131.444C251.899 131.275 251.796 131.122 251.665 130.996C251.535 130.87 251.379 130.773 251.207 130.712C251.036 130.65 250.854 130.626 250.673 130.64C250.459 130.64 250.248 130.683 250.052 130.769C249.855 130.854 249.679 130.979 249.533 131.135C249.388 131.292 249.276 131.477 249.205 131.679C249.135 131.881 249.106 132.096 249.123 132.309V136.564H247.989L248.022 129.656Z" fill="#393E46"/>
<path d="M264.195 134.495C264.053 135.121 263.69 135.675 263.172 136.055C262.655 136.435 262.017 136.616 261.378 136.564C260.934 136.572 260.493 136.485 260.086 136.307C259.679 136.13 259.315 135.867 259.019 135.536C258.723 135.205 258.502 134.814 258.371 134.389C258.24 133.965 258.202 133.517 258.26 133.076C258.203 132.638 258.24 132.192 258.368 131.768C258.496 131.345 258.711 130.953 259.001 130.619C259.291 130.285 259.648 130.016 260.049 129.83C260.45 129.644 260.886 129.545 261.327 129.539C261.749 129.538 262.166 129.627 262.551 129.8C262.936 129.972 263.28 130.225 263.561 130.54C263.841 130.855 264.052 131.227 264.178 131.629C264.305 132.032 264.345 132.457 264.295 132.876V133.31H259.427C259.395 133.586 259.424 133.866 259.51 134.13C259.597 134.394 259.739 134.636 259.927 134.84C260.115 135.044 260.345 135.206 260.601 135.313C260.857 135.42 261.133 135.471 261.411 135.462C261.768 135.485 262.123 135.391 262.424 135.196C262.724 135.001 262.954 134.714 263.078 134.378L264.195 134.495ZM259.443 132.476H263.112C263.13 132.227 263.097 131.978 263.015 131.742C262.933 131.507 262.803 131.291 262.634 131.108C262.466 130.925 262.261 130.779 262.033 130.678C261.806 130.578 261.56 130.525 261.311 130.523C261.06 130.528 260.812 130.582 260.582 130.682C260.352 130.783 260.144 130.928 259.97 131.11C259.797 131.291 259.661 131.506 259.57 131.74C259.48 131.974 259.437 132.224 259.443 132.476Z" fill="#393E46"/>
<path d="M265.296 129.656H266.363V130.69C266.567 130.307 266.876 129.989 267.254 129.776C267.633 129.564 268.064 129.464 268.497 129.489C268.824 129.469 269.152 129.522 269.456 129.643C269.76 129.764 270.034 129.951 270.258 130.189C270.483 130.428 270.652 130.713 270.754 131.025C270.856 131.336 270.888 131.666 270.848 131.992V136.397H269.715V132.192C269.715 131.107 269.198 130.523 268.164 130.523C267.916 130.506 267.667 130.544 267.435 130.636C267.203 130.727 266.995 130.869 266.826 131.052C266.656 131.234 266.53 131.452 266.455 131.69C266.381 131.928 266.361 132.179 266.396 132.426V136.414H265.263L265.296 129.656Z" fill="#393E46"/>
<path d="M273.683 128.02V129.689H275.033V130.623H273.716V134.661C273.716 135.279 273.983 135.563 274.566 135.563H275.033V136.514C274.795 136.535 274.555 136.535 274.316 136.514C273.066 136.514 272.649 135.996 272.649 134.695V130.607H271.648V129.672H272.649V128.004L273.683 128.02Z" fill="#393E46"/>
</g>
<defs>
<linearGradient id="paint0_linear_2408_1769" x1="265.5" y1="0" x2="265.5" y2="169" gradientUnits="userSpaceOnUse">
<stop stop-color="white"/>
<stop offset="1" stop-color="white" stop-opacity="0"/>
</linearGradient>
<linearGradient id="paint1_linear_2408_1769" x1="84.5" y1="39" x2="84.5" y2="208" gradientUnits="userSpaceOnUse">
<stop stop-color="white"/>
<stop offset="1" stop-color="white" stop-opacity="0"/>
</linearGradient>
<clipPath id="clip0_2408_1769">
<rect width="200" height="71" fill="white" transform="translate(75 68)"/>
</clipPath>
</defs>
</svg>
