<svg width="96" height="96" viewBox="0 0 96 96" fill="none" xmlns="http://www.w3.org/2000/svg">
<circle cx="48" cy="48" r="48" fill="#F4FBFB"/>
<g clip-path="url(#clip0_127_1158)">
<path d="M74.15 20.1213H22.85C21.276 20.1213 20 21.3749 20 22.9213V47.188C20 48.7344 21.276 49.988 22.85 49.988H74.15C75.724 49.988 77 48.7344 77 47.188V22.9213C77 21.3749 75.724 20.1213 74.15 20.1213V20.1213ZM75.1 47.188C75.1 47.7035 74.6747 48.1213 74.15 48.1213H22.85C22.3253 48.1213 21.9 47.7035 21.9 47.188V22.9213C21.9 22.4059 22.3253 21.988 22.85 21.988H74.15C74.6747 21.988 75.1 22.4059 75.1 22.9213V47.188Z" fill="#40BFB4"/>
<path d="M72.2501 28.5213C70.1514 28.5213 68.4501 26.8498 68.4501 24.7879C68.4501 24.2725 68.0247 23.8546 67.5001 23.8546H29.5C28.9754 23.8546 28.55 24.2725 28.55 24.7879C28.55 25.7781 28.1497 26.7277 27.4371 27.4278C26.7244 28.1279 25.7579 28.5213 24.75 28.5213C24.2254 28.5213 23.8 28.9391 23.8 29.4546V40.6546C23.8 41.1701 24.2254 41.5879 24.75 41.5879C26.8487 41.5879 28.55 43.2594 28.55 45.3213C28.55 45.8367 28.9754 46.2546 29.5 46.2546H67.5001C68.0247 46.2546 68.4501 45.8367 68.4501 45.3213C68.4501 43.2594 70.1514 41.5879 72.2501 41.5879C72.7747 41.5879 73.2001 41.1701 73.2001 40.6546V29.4546C73.2001 28.9391 72.7747 28.5213 72.2501 28.5213V28.5213ZM30.374 44.3879C29.9707 42.0354 28.0946 40.1922 25.7 39.7959V30.2666C28.0917 29.8715 29.967 28.0329 30.374 25.6839H42.2111C39.0269 27.759 37.1126 31.2633 37.1126 35.0173C37.1126 38.7712 39.0269 42.2755 42.2111 44.3506L30.374 44.3879ZM48.5001 25.7213C53.7468 25.7213 58.0001 29.9 58.0001 35.0546C58.0001 40.2093 53.7468 44.3879 48.5001 44.3879C43.2533 44.3879 39.0001 40.2093 39.0001 35.0546C39.0001 29.9 43.2533 25.7213 48.5001 25.7213ZM71.3001 39.7959C68.9055 40.1922 67.0294 42.0354 66.6261 44.3879H54.7891C57.9732 42.3129 59.8875 38.8086 59.8875 35.0546C59.8875 31.3007 57.9732 27.7964 54.7891 25.7213H66.6261C67.0476 28.0557 68.9198 29.8763 71.3001 30.2666V39.7959Z" fill="#40BFB4"/>
<path d="M48.5 39.7213C47.4506 39.7213 46.6 38.8856 46.6 37.8547C46.6 37.3392 46.1746 36.9213 45.65 36.9213C45.1253 36.9213 44.7 37.3392 44.7 37.8547C44.7012 39.556 45.8732 41.0413 47.55 41.4667V42.54C47.55 43.0555 47.9753 43.4733 48.5 43.4733C49.0246 43.4733 49.45 43.0555 49.45 42.54V41.4667C51.2631 40.9661 52.4295 39.2363 52.1915 37.4008C51.9535 35.5653 50.3829 34.178 48.5 34.14C47.4506 34.14 46.6 33.3043 46.6 32.2733C46.6 31.2424 47.4506 30.4067 48.5 30.4067C49.5493 30.4067 50.4 31.2424 50.4 32.2733C50.4 32.7888 50.8253 33.2067 51.35 33.2067C51.8746 33.2067 52.3 32.7888 52.3 32.2733C52.2943 30.5754 51.1233 29.0951 49.45 28.6707V27.588C49.45 27.0725 49.0246 26.6547 48.5 26.6547C47.9753 26.6547 47.55 27.0725 47.55 27.588V28.652C45.7202 29.14 44.5366 30.8783 44.7759 32.7261C45.0152 34.5739 46.6042 35.9657 48.5 35.988C49.5493 35.988 50.4 36.8237 50.4 37.8547C50.4 38.8856 49.5493 39.7213 48.5 39.7213V39.7213Z" fill="#40BFB4"/>
<path d="M37.5751 60.2546C38.3621 60.2546 39.0001 59.6278 39.0001 58.8546V53.2546C39.0001 52.4814 38.3621 51.8546 37.5751 51.8546H29.0251C28.2381 51.8546 27.6001 52.4814 27.6001 53.2546V58.8546C27.6001 59.6278 28.2381 60.2546 29.0251 60.2546H37.5751ZM29.5001 53.7213H37.1001V58.388H29.5001V53.7213Z" fill="#40BFB4"/>
<path d="M52.775 63.9879C53.5621 63.9879 54.2 63.3611 54.2 62.5879V53.2546C54.2 52.4814 53.5621 51.8546 52.775 51.8546H44.225C43.438 51.8546 42.8 52.4814 42.8 53.2546V62.5879C42.8 63.3611 43.438 63.9879 44.225 63.9879H52.775ZM44.7 53.7213H52.3V62.1213H44.7V53.7213Z" fill="#40BFB4"/>
<path d="M67.9749 51.8546H59.4249C58.6379 51.8546 57.9999 52.4814 57.9999 53.2546V65.8546H57.1544C56.5977 65.8608 56.0955 66.1849 55.8689 66.6845C55.6422 67.1841 55.7324 67.7677 56.0999 68.1786L62.6454 75.412C62.9158 75.7101 63.3029 75.8807 63.7094 75.8807C64.1159 75.8807 64.503 75.7101 64.7734 75.412L71.2999 68.1786C71.6685 67.7664 71.7581 67.1807 71.529 66.6803C71.2999 66.1799 70.7944 65.8571 70.2359 65.8546H69.3999V53.2546C69.3999 52.4814 68.7619 51.8546 67.9749 51.8546V51.8546ZM63.6999 73.7786L58.2184 67.7213H58.4749C59.2619 67.7213 59.8999 67.0945 59.8999 66.3213V53.7213H67.4999V66.3213C67.4999 67.0945 68.1379 67.7213 68.9249 67.7213H69.1814L63.6999 73.7786Z" fill="#40BFB4"/>
</g>
<defs>
<clipPath id="clip0_127_1158">
<rect width="57" height="56" fill="white" transform="translate(20 20)"/>
</clipPath>
</defs>
</svg>
