<svg width="96" height="96" viewBox="0 0 96 96" fill="none" xmlns="http://www.w3.org/2000/svg">
<circle cx="48" cy="48" r="48" fill="#F4FBFB"/>
<path d="M66.3925 44.3393C65.9725 44.169 65.4943 44.3713 65.3239 44.7911C64.8641 45.9248 63.7753 46.6574 62.55 46.6574C61.7509 46.6574 60.9985 46.3458 60.4321 45.7807C60.1464 45.495 59.9258 45.1625 59.7764 44.7923C59.6068 44.3723 59.1288 44.169 58.7086 44.3387C58.2884 44.5083 58.0854 44.9862 58.2549 45.4064C58.4873 45.9822 58.8296 46.4984 59.2727 46.9415C60.1495 47.8163 61.3134 48.298 62.55 48.298C64.4465 48.298 66.1322 47.1634 66.8443 45.4078C67.0146 44.988 66.8123 44.5096 66.3925 44.3393Z" fill="#40BFB4"/>
<path d="M57.8354 38.719C57.3823 38.719 57.0151 39.0863 57.0151 39.5393V39.9942C57.0151 40.4472 57.3823 40.8145 57.8354 40.8145C58.2886 40.8145 58.6558 40.4472 58.6558 39.9942V39.5393C58.6558 39.0863 58.2886 38.719 57.8354 38.719Z" fill="#40BFB4"/>
<path d="M67.2644 38.719C66.8113 38.719 66.4441 39.0863 66.4441 39.5393V39.9942C66.4441 40.4472 66.8113 40.8145 67.2644 40.8145C67.7175 40.8145 68.0847 40.4472 68.0847 39.9942V39.5393C68.0847 39.0863 67.7175 38.719 67.2644 38.719Z" fill="#40BFB4"/>
<path d="M38.2608 44.3391C37.8407 44.1688 37.3626 44.3711 37.1922 44.7909C36.7324 45.9246 35.6436 46.6572 34.4182 46.6572C33.6191 46.6572 32.8668 46.3456 32.3004 45.7806C32.0146 45.4947 31.7939 45.1622 31.6447 44.7923C31.4752 44.3722 30.9973 44.1689 30.5771 44.3385C30.1569 44.5081 29.9538 44.986 30.1233 45.4061C30.3555 45.9817 30.6976 46.4979 31.141 46.9414C32.0179 47.8161 33.1818 48.2978 34.4182 48.2978C36.3148 48.2978 38.0005 47.1633 38.7126 45.4076C38.8829 44.9878 38.6806 44.5094 38.2608 44.3391Z" fill="#40BFB4"/>
<path d="M29.7036 38.719C29.2505 38.719 28.8833 39.0863 28.8833 39.5393V39.9942C28.8833 40.4472 29.2505 40.8145 29.7036 40.8145C30.1568 40.8145 30.5239 40.4472 30.5239 39.9942V39.5393C30.5239 39.0863 30.1568 38.719 29.7036 38.719Z" fill="#40BFB4"/>
<path d="M39.1326 38.719C38.6794 38.719 38.3123 39.0863 38.3123 39.5393V39.9942C38.3123 40.4472 38.6794 40.8145 39.1326 40.8145C39.5857 40.8145 39.9529 40.4472 39.9529 39.9942V39.5393C39.9529 39.0863 39.5857 38.719 39.1326 38.719Z" fill="#40BFB4"/>
<path d="M75.1797 34.1531C75.6328 34.1531 76 33.7858 76 33.3328V31.0567C76 27.8235 73.3695 25.1931 70.1364 25.1931H69.0336L68.8997 24.8836C68.2335 23.3448 66.7196 22.3505 65.0428 22.3505H59.6014C53.8104 22.3505 49.0991 27.0617 49.0991 32.8527V49.6023C49.0991 52.0305 51.0745 54.0058 53.5025 54.0058H58.1947V55.1641H40.4816H38.772V53.5985C39.7567 53.1353 40.6709 52.5141 41.478 51.7452C43.1921 50.1124 44.2736 47.9693 44.5714 45.6444C46.2353 45.6427 47.5884 44.2886 47.5884 42.6242V41.5836C47.5884 40.8472 47.3229 40.172 46.8834 39.6474L48.7713 32.1753C48.8823 31.736 48.6162 31.29 48.1769 31.179C47.7383 31.0684 47.2916 31.3341 47.1807 31.7733L45.433 38.6903C45.1858 38.6163 44.9258 38.5725 44.6566 38.5648V35.7962C44.6566 35.5359 44.5331 35.2912 44.3239 35.1365C44.1147 34.9819 43.8442 34.9355 43.5957 35.0119C39.1003 36.391 35.1604 36.3182 32.2021 34.8007C29.9859 33.6639 29.0666 32.0965 29.0598 32.0845C28.8771 31.7591 28.4975 31.5981 28.1368 31.6925C27.7758 31.7869 27.524 32.1131 27.524 32.4861C27.524 34.5181 27.0902 34.9583 24.9455 35.103C24.5148 35.1321 24.1804 35.4899 24.1804 35.9215V38.5649C23.8814 38.5734 23.5932 38.6259 23.3217 38.7157C22.9675 37.3731 22.7426 36.3769 22.6787 35.861C22.5511 34.8345 22.6395 31.774 22.6844 30.6814C22.6848 30.6702 22.685 30.659 22.685 30.6478C22.685 29.3046 23.7777 28.212 25.1209 28.212H26.3645C26.5821 28.212 26.7907 28.1256 26.9447 27.9717L29.879 25.0372C30.4732 24.443 31.3494 24.1951 32.1662 24.39L42.4843 26.8442C43.028 26.9737 43.5873 27.0394 44.1466 27.0394C45.7652 27.0394 47.354 26.4842 48.6203 25.4762C48.6407 25.4599 48.6662 25.4393 48.7159 25.4715C48.7654 25.5034 48.7574 25.5349 48.7511 25.56L48.1298 28.0187C48.0188 28.458 48.2849 28.904 48.7243 29.015C49.1634 29.126 49.6097 28.8599 49.7205 28.4207L50.3418 25.9617C50.5256 25.2335 50.2363 24.4999 49.6051 24.0928C48.9735 23.6855 48.1858 23.7249 47.5984 24.1929C46.6213 24.9707 45.3955 25.399 44.1465 25.399C43.715 25.399 43.2835 25.3483 42.8641 25.2485L32.5464 22.7939C31.1797 22.4678 29.7132 22.8828 28.7189 23.8769L26.0248 26.5712H25.1209C22.8791 26.5712 21.054 28.3904 21.0444 30.63C21.0316 30.9483 20.8839 34.7225 21.0507 36.0629C21.1347 36.7421 21.418 37.9727 21.8928 39.7218C21.4898 40.2352 21.2486 40.8817 21.2486 41.5837V42.6243C21.2486 44.2885 22.6009 45.6426 24.264 45.6445C24.7169 49.1901 26.9716 52.1441 30.0635 53.5978V55.1641H28.3552C27.854 55.1641 27.3602 55.2195 26.8788 55.3281C26.4784 54.628 25.7256 54.1541 24.8628 54.1541H22.8651C21.2853 54.1541 20 55.4394 20 57.0192V61.482C20 62.635 20.685 63.6305 21.6691 64.0845V72.8291C21.6691 73.2821 22.0362 73.6494 22.4894 73.6494H46.3473C46.8005 73.6494 47.1677 73.2821 47.1677 72.8291V61.8502C47.1677 59.8377 46.2726 58.0314 44.8613 56.8047H58.1948V57.2137C58.1948 59.5797 61.746 61.6268 62.1509 61.8524C62.2751 61.9216 62.4127 61.9562 62.5502 61.9562C62.6879 61.9562 62.8255 61.9217 62.9495 61.8524C63.3543 61.6268 66.9043 59.5796 66.9043 57.2137V56.8047H68.6127C71.3949 56.8047 73.6582 59.0681 73.6582 61.8502V72.0089H71.3589V66.5128C71.3589 66.0598 70.9917 65.6925 70.5386 65.6925C70.0854 65.6925 69.7183 66.0598 69.7183 66.5128V72.0089H55.3817V62.5742C55.3817 62.1212 55.0145 61.7539 54.5614 61.7539H49.6406C49.1875 61.7539 48.8203 62.1212 48.8203 62.5742C48.8203 63.0272 49.1875 63.3945 49.6406 63.3945H53.7411V72.8292C53.7411 73.2822 54.1083 73.6495 54.5614 73.6495H74.4786C74.9317 73.6495 75.2989 73.2822 75.2989 72.8292V61.8502C75.2989 58.1634 72.2995 55.1641 68.6128 55.1641H66.9044V54.0058H71.5977C74.0251 54.0058 76 52.0304 76 49.6023V37.2058C76 36.7527 75.6328 36.3855 75.1797 36.3855C74.7265 36.3855 74.3594 36.7527 74.3594 37.2058V39.0624C73.9056 38.7625 73.3669 38.5812 72.7873 38.5647V34.6097C72.7873 32.7244 72.22 30.9124 71.1467 29.3697C71.0161 29.1818 70.8128 29.0571 70.5862 29.0256C70.3594 28.994 70.13 29.0589 69.953 29.204C66.3504 32.1601 61.7959 33.788 57.1284 33.788C55.835 33.788 54.5455 33.6657 53.2959 33.4246C53.0632 33.3797 52.8216 33.4378 52.6347 33.5843C52.4477 33.7307 52.3334 33.951 52.3213 34.1881C52.3144 34.3216 52.3111 34.4595 52.3111 34.6097V38.5648C51.7319 38.5815 51.1935 38.7628 50.7398 39.0625V32.8527C50.7398 27.9664 54.7152 23.9911 59.6015 23.9911H65.0429C66.0651 23.9911 66.988 24.5972 67.394 25.5352L67.7419 26.3392C67.8718 26.6394 68.1677 26.8337 68.4948 26.8337H70.1365C72.4651 26.8337 74.3595 28.7281 74.3595 31.0567V33.3328C74.3594 33.7858 74.7265 34.1531 75.1797 34.1531ZM25.8329 44.7817C25.8103 44.3458 25.4503 44.0038 25.0136 44.0038H24.2675C23.5075 44.0038 22.8893 43.3849 22.8893 42.6242V41.5836C22.8893 40.8229 23.5074 40.2041 24.2675 40.2041H25.0008C25.454 40.2041 25.8212 39.8368 25.8212 39.3838V36.6613C27.5307 36.4173 28.4929 35.7513 28.9109 34.4531C29.4954 35.0179 30.2962 35.6519 31.3468 36.205C35.1771 38.2215 39.6368 37.7703 43.016 36.8825V39.3838C43.016 39.8368 43.3832 40.2041 43.8363 40.2041H44.5682C45.3288 40.2041 45.9477 40.8229 45.9477 41.5836V42.6242C45.9477 43.3849 45.3288 44.0038 44.5682 44.0038H43.8221C43.3856 44.0038 43.0255 44.3456 43.0029 44.7815C42.8885 46.9831 41.945 49.0344 40.3464 50.5573C39.5512 51.3148 38.633 51.9032 37.6395 52.3046C37.6343 52.3066 37.6293 52.3088 37.6241 52.3111C36.6166 52.7159 35.5318 52.9284 34.4185 52.9284C33.2872 52.9284 32.2056 52.7092 31.2141 52.3113C31.1987 52.3046 31.1827 52.2987 31.1669 52.2927C28.1699 51.0694 26.0097 48.2033 25.8329 44.7817ZM37.1314 54.2032V55.9844V57.2137C37.1314 57.939 36.8493 58.6205 36.3369 59.1328C35.8247 59.6452 35.1432 59.9272 34.4178 59.9272C32.9215 59.9272 31.7041 58.71 31.7041 57.2136V55.9844V54.2037C32.5696 54.4409 33.4795 54.5691 34.4186 54.5691C35.3463 54.5691 36.2567 54.4427 37.1314 54.2032ZM21.6406 61.4821V57.0192C21.6406 56.344 22.1899 55.7947 22.8651 55.7947H24.8628C25.2388 55.7947 25.5447 56.1006 25.5447 56.4767V62.0246C25.5447 62.4006 25.2387 62.7066 24.8628 62.7066H22.8651C22.1899 62.7066 21.6406 62.1573 21.6406 61.4821ZM45.527 61.8502V72.0089H43.2272V66.5128C43.2272 66.0598 42.86 65.6925 42.4069 65.6925C41.9538 65.6925 41.5866 66.0598 41.5866 66.5128V72.0089H27.2495V66.5128C27.2495 66.0598 26.8823 65.6925 26.4292 65.6925C25.976 65.6925 25.6089 66.0598 25.6089 66.5128V72.0089H23.3097V64.3472H24.8628C26.1435 64.3472 27.1853 63.3053 27.1853 62.0246V56.9417C27.5657 56.8514 27.957 56.8047 28.355 56.8047H30.0635V57.2137C30.0635 59.6146 32.0168 61.568 34.4178 61.568C35.5815 61.568 36.675 61.1152 37.497 60.293C38.3192 59.4708 38.7719 58.3773 38.7719 57.2137V56.8047H40.4815C43.2636 56.8047 45.527 59.0681 45.527 61.8502ZM65.2637 57.2137C65.2637 58.1231 63.7875 59.4078 62.5502 60.1824C61.3119 59.4076 59.8355 58.123 59.8355 57.2137V54.2037C60.7007 54.4409 61.6104 54.5689 62.5493 54.5689C63.4777 54.5689 64.3886 54.4425 65.2637 54.2029V57.2137ZM74.3594 45.1456V49.6023C74.3594 51.1258 73.1205 52.3652 71.5977 52.3652H68.8954C69.1416 52.1702 69.3804 51.9639 69.6102 51.745C71.3241 50.1112 72.4056 47.9679 72.7034 45.6444C73.3147 45.6437 73.8837 45.4599 74.3594 45.1456ZM52.3994 40.2041H53.1313C53.5845 40.2041 53.9516 39.8368 53.9516 39.3838V35.1992C54.997 35.3517 56.0617 35.4288 57.1283 35.4288C61.8611 35.4288 66.4866 33.8803 70.2564 31.051C70.841 32.1404 71.1466 33.3551 71.1466 34.6098V39.3839C71.1466 39.8369 71.5138 40.2042 71.9669 40.2042H72.7003C73.4602 40.2042 74.0785 40.823 74.0785 41.5837V42.6243C74.0785 43.385 73.4603 44.0039 72.7003 44.0039H71.9541C71.5176 44.0039 71.1575 44.3457 71.1349 44.7816C71.0206 46.982 70.077 49.0334 68.4784 50.5574C67.6871 51.3112 66.7737 51.8972 65.7855 52.2985C65.7709 52.3042 65.7566 52.3104 65.7424 52.3169C64.7384 52.7182 63.6579 52.9285 62.5492 52.9285C61.4183 52.9285 60.3371 52.7095 59.3459 52.3117C59.33 52.3047 59.3137 52.2987 59.2975 52.2926C56.3012 51.0692 54.1416 48.2032 53.9649 44.7819C53.9423 44.3459 53.5823 44.0039 53.1457 44.0039H52.3995C51.6389 44.0039 51.0201 43.385 51.0201 42.6243V41.5836H51.02C51.02 40.8229 51.6388 40.2041 52.3994 40.2041ZM52.396 45.6444C52.7445 48.3729 54.1603 50.7509 56.2027 52.3652H53.5027C51.9792 52.3652 50.7398 51.1257 50.7398 49.6023V45.1457C51.2155 45.4599 51.7846 45.6437 52.396 45.6444Z" fill="#40BFB4"/>
</svg>
