<svg width="96" height="96" viewBox="0 0 96 96" fill="none" xmlns="http://www.w3.org/2000/svg">
<circle cx="48" cy="48" r="48" fill="#F4FBFB"/>
<g clip-path="url(#clip0_127_1255)">
<path d="M62.75 75.9999C62.5933 75.9999 62.4365 75.9696 62.2892 75.9089C61.724 75.6732 48.5 70.0592 48.5 58.5839V48.8329C48.5 48.3312 48.8254 47.8879 49.3075 47.7269L62.37 43.3939C62.617 43.3122 62.8854 43.3122 63.13 43.3939L76.1925 47.7269C76.6746 47.8856 77 48.3312 77 48.8329V58.5839C77 70.0592 63.776 75.6732 63.2108 75.9089C63.0635 75.9696 62.9067 75.9999 62.75 75.9999ZM50.875 49.6729V58.5839C50.875 67.4132 60.5056 72.4859 62.75 73.5476C64.992 72.4836 74.625 67.3899 74.625 58.5839V49.6729L62.75 45.7319L50.875 49.6729Z" fill="#40BFB4"/>
<path d="M61.5626 64.3332C61.5412 64.3332 61.5175 64.3332 61.4985 64.3309C61.1588 64.3122 60.8477 64.1559 60.6363 63.8946L55.8863 58.0612C55.4778 57.5572 55.5586 56.8246 56.0716 56.4209C56.587 56.0242 57.3303 56.1036 57.7412 56.6029L61.66 61.4166L69.0343 54.1739C69.4975 53.7189 70.2503 53.7189 70.7135 54.1739C71.1766 54.6289 71.1766 55.3686 70.7135 55.8236L62.401 63.9902C62.1801 64.2096 61.8761 64.3332 61.5626 64.3332V64.3332Z" fill="#40BFB4"/>
<path d="M63.9375 38.6667H28.3125C23.7288 38.6667 20 35.0034 20 30.5C20 25.9967 23.7288 22.3334 28.3125 22.3334H63.9375C68.5212 22.3334 72.25 25.9967 72.25 30.5C72.25 35.0034 68.5212 38.6667 63.9375 38.6667ZM28.3125 24.6667C25.0374 24.6667 22.375 27.2824 22.375 30.5C22.375 33.7177 25.0374 36.3334 28.3125 36.3334H63.9375C67.2126 36.3334 69.875 33.7177 69.875 30.5C69.875 27.2824 67.2126 24.6667 63.9375 24.6667H28.3125Z" fill="#40BFB4"/>
<path d="M30.6875 34C28.7234 34 27.125 32.4297 27.125 30.5C27.125 28.5703 28.7234 27 30.6875 27C32.6516 27 34.25 28.5703 34.25 30.5C34.25 32.4297 32.6516 34 30.6875 34ZM30.6875 29.3333C30.0344 29.3333 29.5 29.8583 29.5 30.5C29.5 31.1417 30.0344 31.6667 30.6875 31.6667C31.3406 31.6667 31.875 31.1417 31.875 30.5C31.875 29.8583 31.3406 29.3333 30.6875 29.3333Z" fill="#40BFB4"/>
<path d="M42.5625 34C40.5984 34 39 32.4297 39 30.5C39 28.5703 40.5984 27 42.5625 27C44.5266 27 46.125 28.5703 46.125 30.5C46.125 32.4297 44.5266 34 42.5625 34ZM42.5625 29.3333C41.9094 29.3333 41.375 29.8583 41.375 30.5C41.375 31.1417 41.9094 31.6667 42.5625 31.6667C43.2156 31.6667 43.75 31.1417 43.75 30.5C43.75 29.8583 43.2156 29.3333 42.5625 29.3333Z" fill="#40BFB4"/>
<path d="M42.5625 52.6667H28.3125C23.7288 52.6667 20 49.0034 20 44.5C20 42.3207 20.8645 40.272 22.4368 38.7274C24.009 37.1827 26.0942 36.3334 28.3125 36.3334H63.9375C65.7948 36.3334 67.5451 36.919 68.9915 38.0274C69.5093 38.424 69.6019 39.1567 69.1981 39.6654C68.7944 40.1717 68.0486 40.2627 67.5309 39.8684C66.5049 39.082 65.2628 38.6667 63.9375 38.6667H28.3125C26.7307 38.6667 25.2393 39.2757 24.1159 40.377C22.9925 41.4784 22.375 42.946 22.375 44.5C22.375 47.7177 25.0374 50.3334 28.3125 50.3334H42.5625C43.218 50.3334 43.75 50.856 43.75 51.5C43.75 52.144 43.218 52.6667 42.5625 52.6667Z" fill="#40BFB4"/>
<path d="M30.6875 48C28.7234 48 27.125 46.4297 27.125 44.5C27.125 42.5703 28.7234 41 30.6875 41C32.6516 41 34.25 42.5703 34.25 44.5C34.25 46.4297 32.6516 48 30.6875 48ZM30.6875 43.3333C30.0344 43.3333 29.5 43.8583 29.5 44.5C29.5 45.1417 30.0344 45.6667 30.6875 45.6667C31.3406 45.6667 31.875 45.1417 31.875 44.5C31.875 43.8583 31.3406 43.3333 30.6875 43.3333Z" fill="#40BFB4"/>
<path d="M42.5625 48C40.5984 48 39 46.4297 39 44.5C39 42.5703 40.5984 41 42.5625 41C44.5266 41 46.125 42.5703 46.125 44.5C46.125 46.4297 44.5266 48 42.5625 48ZM42.5625 43.3333C41.9094 43.3333 41.375 43.8583 41.375 44.5C41.375 45.1417 41.9094 45.6667 42.5625 45.6667C43.2156 45.6667 43.75 45.1417 43.75 44.5C43.75 43.8583 43.2156 43.3333 42.5625 43.3333Z" fill="#40BFB4"/>
<path d="M42.5625 66.6667H28.3125C23.7288 66.6667 20 63.0034 20 58.5C20 56.3207 20.8645 54.272 22.4368 52.7274C24.009 51.1827 26.0943 50.3334 28.3125 50.3334H42.5625C43.218 50.3334 43.75 50.856 43.75 51.5C43.75 52.144 43.218 52.6667 42.5625 52.6667H28.3125C26.7308 52.6667 25.2393 53.2757 24.1159 54.377C22.9925 55.4784 22.375 56.946 22.375 58.5C22.375 61.7177 25.0374 64.3334 28.3125 64.3334H42.5625C43.218 64.3334 43.75 64.856 43.75 65.5C43.75 66.144 43.218 66.6667 42.5625 66.6667Z" fill="#40BFB4"/>
<path d="M30.6875 62C28.7234 62 27.125 60.4297 27.125 58.5C27.125 56.5703 28.7234 55 30.6875 55C32.6516 55 34.25 56.5703 34.25 58.5C34.25 60.4297 32.6516 62 30.6875 62ZM30.6875 57.3333C30.0344 57.3333 29.5 57.8583 29.5 58.5C29.5 59.1417 30.0344 59.6667 30.6875 59.6667C31.3406 59.6667 31.875 59.1417 31.875 58.5C31.875 57.8583 31.3406 57.3333 30.6875 57.3333Z" fill="#40BFB4"/>
<path d="M42.5625 62C40.5984 62 39 60.4297 39 58.5C39 56.5703 40.5984 55 42.5625 55C44.5266 55 46.125 56.5703 46.125 58.5C46.125 60.4297 44.5266 62 42.5625 62ZM42.5625 57.3333C41.9094 57.3333 41.375 57.8583 41.375 58.5C41.375 59.1417 41.9094 59.6667 42.5625 59.6667C43.2156 59.6667 43.75 59.1417 43.75 58.5C43.75 57.8583 43.2156 57.3333 42.5625 57.3333Z" fill="#40BFB4"/>
</g>
<defs>
<clipPath id="clip0_127_1255">
<rect width="57" height="56" fill="white" transform="translate(20 20)"/>
</clipPath>
</defs>
</svg>
