<svg width="96" height="96" viewBox="0 0 96 96" fill="none" xmlns="http://www.w3.org/2000/svg">
<circle cx="48" cy="48" r="48" fill="#F4FBFB"/>
<path d="M73.375 73.375H75.125V75.125H73.375V73.375Z" fill="#40BFB4"/>
<path d="M20.875 73.375H22.625V75.125H20.875V73.375Z" fill="#40BFB4"/>
<path d="M69.875 58.5C68.1618 58.5 66.613 59.2088 65.5 60.3472V57.625C66.9473 57.625 68.125 56.4473 68.125 55V52.5579C68.125 51.9629 68.4067 51.4265 68.8792 51.1229C71.1464 49.6652 72.5 47.1889 72.5 44.5C72.5 42.26 71.541 40.1189 69.8697 38.6253C68.1994 37.1325 65.9541 36.4238 63.7106 36.6767C60.166 37.0774 57.2663 39.9343 56.8156 43.4693C56.4245 46.5397 57.7939 49.477 60.3891 51.1352C60.8424 51.4248 61.1241 51.9839 61.1241 52.5938V55C61.1241 56.4473 62.3019 57.625 63.7491 57.625V64.625V65.5V66.4722C62.637 65.3338 61.0882 64.625 59.375 64.625H54.125V65.5C54.125 68.8767 56.8725 71.625 60.25 71.625H63.75V73.375H48.875V71.625V70.75V64.625H51.5C53.9124 64.625 55.875 62.6624 55.875 60.25V59.375H51.5C50.5113 59.375 49.6082 59.7172 48.875 60.2728V57.625H51.5C54.8775 57.625 57.625 54.8767 57.625 51.5V50.625H53.25C51.5368 50.625 49.988 51.3338 48.875 52.4722V48.875C51.2874 48.875 53.25 46.9124 53.25 44.5V42.2863C53.25 41.2302 53.7426 40.2257 54.601 39.5309C57.079 37.5263 58.5 34.5539 58.5 31.375C58.5 28.3913 57.2243 25.5379 54.9983 23.5473C52.7749 21.5593 49.7859 20.6108 46.7942 20.9424C42.1874 21.4569 38.333 25.1442 37.6286 29.7108C37.0502 33.4567 38.4433 37.1142 41.3544 39.495C42.2408 40.2204 42.75 41.2389 42.75 42.2907V44.5C42.75 46.9124 44.7126 48.875 47.125 48.875V53.2728C46.3918 52.7172 45.4887 52.375 44.5 52.375H40.125V53.25C40.125 55.6624 42.0876 57.625 44.5 57.625H47.125V63.75V64.625V67.2728C46.3918 66.7172 45.4887 66.375 44.5 66.375H40.125V67.25C40.125 69.6624 42.0876 71.625 44.5 71.625H47.125V73.375H32.25V71.625V70.75V65.5H35.75C39.1275 65.5 41.875 62.7517 41.875 59.375V58.5H36.625C34.9118 58.5 33.363 59.2088 32.25 60.3472V57.625C33.6973 57.625 34.875 56.4473 34.875 55V52.5579C34.875 51.9629 35.1567 51.4265 35.6292 51.1229C37.8964 49.6652 39.25 47.1889 39.25 44.5C39.25 42.26 38.291 40.1189 36.6197 38.6253C34.9494 37.1325 32.7032 36.4238 30.4606 36.6767C26.916 37.0774 24.0162 39.9343 23.5656 43.4693C23.1745 46.5397 24.5439 49.477 27.1391 51.1352C27.5933 51.4248 27.875 51.9839 27.875 52.5938V55C27.875 56.4473 29.0527 57.625 30.5 57.625V64.625V65.5V66.4722C29.387 65.3338 27.8382 64.625 26.125 64.625H20.875V65.5C20.875 68.8767 23.6225 71.625 27 71.625H30.5V73.375H24.375V75.125H71.625V73.375H65.5V71.625V70.75V65.5H69C72.3775 65.5 75.125 62.7517 75.125 59.375V58.5H69.875ZM61.3315 49.6599C59.312 48.3702 58.2471 46.0829 58.5516 43.6907C58.9016 40.9458 61.1539 38.7268 63.9066 38.4153C64.1508 38.3882 64.3922 38.375 64.6329 38.375C66.1422 38.375 67.5667 38.9149 68.7034 39.9308C70.0036 41.0919 70.75 42.7579 70.75 44.5C70.75 46.5913 69.6965 48.5172 67.9325 49.652C67.0076 50.2462 66.4424 51.2559 66.3855 52.375H65.5V46.964C66.5159 46.6018 67.25 45.6393 67.25 44.5C67.25 43.0528 66.0723 41.875 64.625 41.875C63.1777 41.875 62 43.0528 62 44.5C62 45.6393 62.7341 46.6018 63.75 46.964V52.375H62.8619C62.7971 51.2454 62.2398 50.2409 61.3315 49.6599V49.6599ZM63.75 44.5C63.75 44.0179 64.1429 43.625 64.625 43.625C65.1071 43.625 65.5 44.0179 65.5 44.5C65.5 44.9822 65.1071 45.375 64.625 45.375C64.1429 45.375 63.75 44.9822 63.75 44.5ZM62.875 55V54.125H66.375V55C66.375 55.483 65.9821 55.875 65.5 55.875H63.75C63.2679 55.875 62.875 55.483 62.875 55ZM60.25 69.875C58.1369 69.875 56.3694 68.3692 55.9634 66.375H59.375C61.4881 66.375 63.2556 67.8809 63.6616 69.875H60.25ZM51.5 61.125H53.9754C53.614 62.1435 52.641 62.875 51.5 62.875H49.0246C49.386 61.8565 50.359 61.125 51.5 61.125ZM53.25 52.375H55.7866C55.3806 54.3692 53.6123 55.875 51.5 55.875H48.9634C49.3694 53.8809 51.1369 52.375 53.25 52.375ZM42.4621 38.1405C40.0357 36.156 38.8755 33.104 39.3576 29.9768C39.9439 26.1784 43.1525 23.1098 46.9876 22.681C47.3306 22.6434 47.6719 22.6242 48.0096 22.6242C50.1683 22.6242 52.2044 23.3977 53.8301 24.851C55.686 26.5109 56.75 28.8883 56.75 31.375C56.75 34.0228 55.5652 36.4999 53.5011 38.1703C52.34 39.1092 51.6383 40.4427 51.5236 41.875H49.8104L50.3354 34H51.5C52.9473 34 54.125 32.8223 54.125 31.375C54.125 29.9278 52.9473 28.75 51.5 28.75H51.3871C50.0107 28.75 48.8601 29.8263 48.7682 31.2009L48.6983 32.25H47.3017L47.2317 31.2C47.1399 29.8263 45.9892 28.75 44.6129 28.75H44.5C43.0527 28.75 41.875 29.9278 41.875 31.375C41.875 32.8223 43.0527 34 44.5 34H45.6646L46.1896 41.875H44.4755C44.3574 40.4488 43.6434 39.1057 42.4621 38.1405V38.1405ZM47.9431 41.875L47.4181 34H48.581L48.056 41.875H47.9431ZM50.4517 32.25L50.5139 31.3173C50.5445 30.8588 50.9286 30.5 51.3871 30.5H51.5C51.9821 30.5 52.375 30.8929 52.375 31.375C52.375 31.8572 51.9821 32.25 51.5 32.25H50.4517ZM45.5482 32.25H44.5C44.0179 32.25 43.625 31.8572 43.625 31.375C43.625 30.8929 44.0179 30.5 44.5 30.5H44.6129C45.0714 30.5 45.4555 30.8588 45.4861 31.3173L45.5482 32.25ZM44.5 44.5V43.625H51.5V44.5C51.5 45.9473 50.3223 47.125 48.875 47.125H47.125C45.6777 47.125 44.5 45.9473 44.5 44.5ZM44.5 55.875C43.359 55.875 42.386 55.1435 42.0246 54.125H44.5C45.641 54.125 46.614 54.8565 46.9754 55.875H44.5ZM44.5 69.875C43.359 69.875 42.386 69.1435 42.0246 68.125H44.5C45.641 68.125 46.614 68.8565 46.9754 69.875H44.5ZM36.625 60.25H40.0366C39.6306 62.2442 37.8623 63.75 35.75 63.75H32.3384C32.7444 61.7559 34.5119 60.25 36.625 60.25ZM28.0815 49.6599C26.062 48.3702 24.9971 46.0829 25.3016 43.6907C25.6516 40.9458 27.9039 38.7268 30.6566 38.4153C30.9007 38.3882 31.1422 38.375 31.3829 38.375C32.8922 38.375 34.3167 38.9149 35.4534 39.9308C36.7536 41.0919 37.5 42.7579 37.5 44.5C37.5 46.5913 36.4465 48.5172 34.6825 49.652C33.7576 50.2462 33.1924 51.2559 33.1355 52.375H32.25V46.964C33.2659 46.6018 34 45.6393 34 44.5C34 43.0528 32.8223 41.875 31.375 41.875C29.9277 41.875 28.75 43.0528 28.75 44.5C28.75 45.6393 29.4841 46.6018 30.5 46.964V52.375H29.6119C29.5471 51.2454 28.9898 50.2409 28.0815 49.6599V49.6599ZM30.5 44.5C30.5 44.0179 30.8929 43.625 31.375 43.625C31.8571 43.625 32.25 44.0179 32.25 44.5C32.25 44.9822 31.8571 45.375 31.375 45.375C30.8929 45.375 30.5 44.9822 30.5 44.5ZM29.625 55V54.125H33.125V55C33.125 55.483 32.7321 55.875 32.25 55.875H30.5C30.0179 55.875 29.625 55.483 29.625 55ZM27 69.875C24.8869 69.875 23.1194 68.3692 22.7134 66.375H26.125C28.2381 66.375 30.0056 67.8809 30.4116 69.875H27ZM69 63.75H65.5884C65.9944 61.7559 67.7627 60.25 69.875 60.25H73.2866C72.8806 62.2442 71.1131 63.75 69 63.75Z" fill="#40BFB4"/>
</svg>
