<svg width="96" height="96" viewBox="0 0 96 96" fill="none" xmlns="http://www.w3.org/2000/svg">
<circle cx="48" cy="48" r="48" fill="#F4FBFB"/>
<g clip-path="url(#clip0_127_1104)">
<path d="M74.3014 45.4247H47.9999C47.0632 45.4247 46.3013 46.1867 46.3013 47.1233V62.0603C46.1931 62.0547 46.0848 62.0491 45.9777 62.0415C45.5259 62.0077 45.1317 62.3499 45.0993 62.8028C45.0668 63.2556 45.4076 63.6489 45.8606 63.6812C46.0065 63.6916 46.1537 63.7 46.3012 63.7068V67.2878C46.3012 68.2244 47.0632 68.9864 47.9998 68.9864H57.5893L56.918 74.3562H56C55.5459 74.3562 55.178 74.7243 55.178 75.1782C55.178 75.6321 55.5459 76.0001 56 76.0001H66.4109C66.8649 76.0001 67.2329 75.6321 67.2329 75.1782C67.2329 74.7243 66.8649 74.3562 66.4109 74.3562H65.3831L64.7119 68.9864H74.3014C75.238 68.9864 75.9999 68.2243 75.9999 67.2878V47.1234C75.9999 46.1867 75.2379 45.4247 74.3014 45.4247ZM58.5749 74.3562L59.2461 68.9864H63.0552L63.7264 74.3562H58.5749ZM74.3562 67.2876C74.3562 67.3179 74.3315 67.3424 74.3014 67.3424H47.9999C47.9697 67.3424 47.9451 67.3179 47.9451 67.2876V65.4795H74.3562V67.2876ZM74.3562 63.8357H47.9451V50.5754H74.3562V63.8357ZM74.3562 48.9316H47.9451V47.1234C47.9451 47.0932 47.9697 47.0686 47.9999 47.0686H74.3014C74.3315 47.0686 74.3562 47.0931 74.3562 47.1234V48.9316Z" fill="#40BFB4"/>
<path d="M55.8904 38.4111H53.2055V31.6225C53.5112 31.7498 53.8139 31.8859 54.1098 32.0315C54.2265 32.089 54.3503 32.1162 54.4723 32.1162C54.7756 32.1162 55.0673 31.9477 55.2102 31.6573C55.4108 31.2501 55.2432 30.7574 54.8359 30.5568C54.3066 30.296 53.7582 30.0609 53.2054 29.8556V21.6986C53.2054 20.7619 52.4434 20 51.5068 20H25.2055C24.2688 20 23.5069 20.762 23.5069 21.6986V38.4109H20.822C20.3679 38.4109 20 38.7789 20 39.2328V40.9862C20 41.9229 20.762 42.6848 21.6986 42.6848H30.1839C30.0481 42.8035 29.9498 42.967 29.9157 43.1583C29.8086 43.7588 29.7323 44.3728 29.6888 44.9832C29.6563 45.436 29.9972 45.8292 30.45 45.8617C30.4699 45.8631 30.4897 45.8639 30.5094 45.8639C30.9366 45.8639 31.2975 45.5333 31.3284 45.1005C31.368 44.5471 31.4372 43.9909 31.5343 43.447C31.5866 43.1532 31.4751 42.8686 31.266 42.6849H55.0138C55.9505 42.6849 56.7124 41.9229 56.7124 40.9863V39.2329C56.7124 38.779 56.3444 38.4111 55.8904 38.4111ZM25.1507 25.1507H41.452C41.9061 25.1507 42.274 24.7826 42.274 24.3287C42.274 23.8748 41.9061 23.5068 41.452 23.5068H25.1507V21.6986C25.1507 21.6683 25.1753 21.6438 25.2055 21.6438H51.5069C51.5371 21.6438 51.5617 21.6683 51.5617 21.6986V23.5068H45.3973C44.9433 23.5068 44.5754 23.8748 44.5754 24.3287C44.5754 24.7826 44.9433 25.1507 45.3973 25.1507H51.5617V38.411H25.1507V25.1507ZM55.0685 40.9863C55.0685 41.0166 55.0439 41.0411 55.0137 41.0411H21.6986C21.6684 41.0411 21.6438 41.0166 21.6438 40.9863V40.0548H55.0685V40.9863Z" fill="#40BFB4"/>
<path d="M42.6794 61.4504C42.1443 61.2942 41.612 61.1076 41.0968 60.8953C40.6772 60.7224 40.1967 60.9226 40.0239 61.3423C39.8509 61.762 40.051 62.2424 40.4708 62.4153C41.0398 62.6497 41.6282 62.856 42.219 63.0283C42.2958 63.0507 42.3733 63.0615 42.4496 63.0615C42.8055 63.0615 43.1335 62.8285 43.2383 62.4695C43.3654 62.034 43.1152 61.5776 42.6794 61.4504Z" fill="#40BFB4"/>
<path d="M38.1517 59.2976C37.9226 59.1397 37.6962 58.9747 37.4784 58.8072C37.4609 58.7938 37.4427 58.7819 37.4246 58.7699V51.5068C37.4246 50.5701 36.6626 49.8082 35.726 49.8082H31.6909C31.5865 49.3534 31.5004 48.8907 31.4365 48.4284C31.3745 47.9787 30.9603 47.6642 30.51 47.7263C30.0604 47.7882 29.746 48.2032 29.8082 48.6528C29.8614 49.0391 29.9294 49.4254 30.0087 49.8082H25.2054C24.2687 49.8082 23.5068 50.5702 23.5068 51.5068V69.041C23.5068 69.9777 24.2689 70.7396 25.2054 70.7396H35.726C36.6627 70.7396 37.4246 69.9776 37.4246 69.041V60.7525C37.5095 60.7809 37.5972 60.7962 37.6847 60.7962C37.946 60.7962 38.2029 60.672 38.3623 60.4406C38.6198 60.0668 38.5256 59.555 38.1517 59.2976ZM35.7808 69.0411C35.7808 69.0714 35.7562 69.0959 35.726 69.0959H25.2054C25.1752 69.0959 25.1506 69.0714 25.1506 69.0411V67.2329H35.7808V69.0411ZM35.7808 65.589H25.1506V54.0822H35.7808V65.589ZM35.7808 52.4383H25.1506V51.5068C25.1506 51.4765 25.1752 51.452 25.2054 51.452H35.726C35.7562 51.452 35.7808 51.4765 35.7808 51.5068V52.4383Z" fill="#40BFB4"/>
<path d="M64.3628 43.3439C64.2621 42.7412 64.1279 42.1371 63.9641 41.5483C63.8423 41.111 63.389 40.8551 62.9518 40.9771C62.5144 41.0988 62.2587 41.5519 62.3804 41.9893C62.5288 42.5223 62.6504 43.0693 62.7415 43.6149C62.8085 44.0167 63.1567 44.3014 63.5513 44.3014C63.5962 44.3014 63.6418 44.2977 63.6877 44.29C64.1353 44.2151 64.4378 43.7916 64.3628 43.3439Z" fill="#40BFB4"/>
<path d="M59.3237 33.7294C58.886 33.3028 58.4211 32.8948 57.942 32.5167C57.5858 32.2358 57.0687 32.2964 56.7876 32.6528C56.5063 33.0091 56.5673 33.526 56.9237 33.8072C57.358 34.1498 57.7794 34.5198 58.1764 34.9066C58.3362 35.0624 58.5432 35.1399 58.7498 35.1399C58.9637 35.1399 59.1775 35.057 59.3386 34.8918C59.6555 34.5667 59.6489 34.0463 59.3237 33.7294Z" fill="#40BFB4"/>
<path d="M62.6096 38.1339C62.3259 37.5932 62.01 37.0615 61.6707 36.5534C61.4187 36.1758 60.9084 36.0741 60.5308 36.3262C60.1534 36.5783 60.0517 37.0887 60.3038 37.4661C60.6111 37.9264 60.8973 38.4081 61.1543 38.8977C61.3013 39.1778 61.5869 39.3379 61.8826 39.3379C62.0113 39.3379 62.142 39.3075 62.2639 39.2436C62.6658 39.0326 62.8206 38.5358 62.6096 38.1339Z" fill="#40BFB4"/>
</g>
<defs>
<clipPath id="clip0_127_1104">
<rect width="56" height="56" fill="white" transform="translate(20 20)"/>
</clipPath>
</defs>
</svg>
