<svg width="96" height="96" viewBox="0 0 96 96" fill="none" xmlns="http://www.w3.org/2000/svg">
<circle cx="48" cy="48" r="48" fill="#F4FBFB"/>
<path d="M65.4462 68.7742L63.3552 62.5004C62.6245 60.31 60.7603 58.6933 58.4878 58.2796L52.4515 57.1813V56.7134C53.5019 56.1037 54.416 55.2881 55.144 54.3225H56.9676C58.4616 54.3225 59.6773 53.1068 59.6773 51.6129V40.7742C59.6773 34.2998 54.4097 29.0322 47.9354 29.0322C41.461 29.0322 36.1934 34.2998 36.1934 40.7742V47.0967C36.1934 48.8382 37.4318 50.2951 39.0738 50.6347C39.5805 53.2305 41.2027 55.4272 43.4192 56.7134V57.1813L37.3821 58.2796C35.1105 58.6933 33.2453 60.31 32.5155 62.5004L32.1542 63.5851L29.0778 60.5087C28.7256 60.1565 28.7256 59.5829 29.0778 59.2307L32.6456 55.6638L25.949 48.9673L21.917 52.9993C20.723 54.1934 20.0654 55.7813 20.0654 57.4703C20.0654 59.1593 20.723 60.7463 21.917 61.9404L34.1241 74.1475C35.3182 75.3415 36.9061 76 38.5951 76C40.2841 76 41.8711 75.3415 43.0372 74.1745L47.4368 70.1435L46.0648 68.7742H65.4462ZM57.8709 51.6129C57.8709 52.1115 57.4653 52.5161 56.9676 52.5161H56.208C56.47 51.9191 56.6687 51.2895 56.7969 50.6347C57.1835 50.5543 57.5394 50.4007 57.8709 50.2075V51.6129ZM56.9676 48.6521V45.5414C57.505 45.8548 57.8709 46.4311 57.8709 47.0967C57.8709 47.7624 57.505 48.3387 56.9676 48.6521ZM38.9031 48.6521C38.3657 48.3387 37.9999 47.7624 37.9999 47.0967C37.9999 46.4311 38.3657 45.8548 38.9031 45.5414V48.6521ZM38.9031 42.5806V43.6121C38.5816 43.6961 38.2799 43.8225 37.9999 43.986V40.7742C37.9999 35.2961 42.4573 30.8387 47.9354 30.8387C53.4134 30.8387 57.8709 35.2961 57.8709 40.7742V43.986C57.5909 43.8225 57.2892 43.6952 56.9676 43.6121V42.5806H56.0644C53.3936 42.5806 50.8826 41.5401 48.993 39.6515L47.9354 38.5938L46.8777 39.6515C44.9881 41.5401 42.4772 42.5806 39.8063 42.5806H38.9031ZM40.7096 48.9032V44.3527C43.4219 44.1486 45.951 43.0295 47.9354 41.1427C49.9198 43.0295 52.4488 44.1495 55.1612 44.3527V48.9032C55.1612 50.2201 54.8017 51.4521 54.1839 52.5161H47.9354V54.3225H52.699C51.4254 55.4435 49.7608 56.129 47.9354 56.129C43.9512 56.129 40.7096 52.8873 40.7096 48.9032ZM50.645 57.5191V57.5615L47.9354 60.2712L45.2257 57.5615V57.5191C46.0819 57.7882 46.9915 57.9355 47.9354 57.9355C48.8792 57.9355 49.7888 57.7882 50.645 57.5191ZM34.228 63.0712C34.7492 61.5068 36.0814 60.3516 37.7045 60.0553L44.0181 58.9082L47.9354 62.8255L51.8518 58.9091L58.1644 60.0562C59.7875 60.3525 61.1198 61.5068 61.6409 63.0721L62.9407 66.9677H44.2583L40.7403 63.4496L36.8311 66.9858C36.4906 67.3281 35.8954 67.3281 35.5539 66.9858L33.5813 65.0131L34.228 63.0712ZM25.9481 51.5216L30.0903 55.6638L29.1094 56.6447L24.9672 52.5025L25.9481 51.5216ZM41.7862 72.8721C40.9336 73.7229 39.7991 74.1935 38.5933 74.1935C37.3875 74.1935 36.253 73.7229 35.3995 72.8703L23.1924 60.6641C22.3398 59.8115 21.8701 58.677 21.8701 57.4712C21.8701 56.2645 22.3398 55.13 23.1924 54.2774L23.6892 53.7806L27.8314 57.9228L27.7988 57.9553C26.743 59.0121 26.743 60.7309 27.7988 61.7877L34.2759 68.2647C34.788 68.776 35.4681 69.0587 36.1925 69.0587C36.9169 69.0587 37.597 68.7769 38.0758 68.2964L38.1435 68.2358L42.3047 72.397L41.7862 72.8721ZM43.6378 71.174L39.4857 67.0219L40.6789 65.9435L44.8238 70.0884L43.6378 71.174Z" fill="#40BFB4"/>
<path d="M73.2257 20H60.5805C59.0866 20 57.8708 21.2157 57.8708 22.7097V29.9355C57.8708 31.4294 59.0866 32.6452 60.5805 32.6452H62.993L62.0591 38.0925L70.7752 32.6452H73.2257C74.7196 32.6452 75.9354 31.4294 75.9354 29.9355V22.7097C75.9354 21.2157 74.7196 20 73.2257 20ZM74.1289 29.9355C74.1289 30.4332 73.7234 30.8387 73.2257 30.8387H70.2568L64.5204 34.4236L65.1355 30.8387H60.5805C60.0828 30.8387 59.6773 30.4332 59.6773 29.9355V22.7097C59.6773 22.212 60.0828 21.8065 60.5805 21.8065H73.2257C73.7234 21.8065 74.1289 22.212 74.1289 22.7097V29.9355Z" fill="#40BFB4"/>
<path d="M72.3226 23.6129H61.4839V25.4194H72.3226V23.6129Z" fill="#40BFB4"/>
<path d="M68.7097 27.2258H61.4839V29.0323H68.7097V27.2258Z" fill="#40BFB4"/>
<path d="M72.3226 27.2258H70.5161V29.0323H72.3226V27.2258Z" fill="#40BFB4"/>
<path d="M47.9355 22.7097C36.134 22.7097 25.9682 30.8731 23.3253 42.26L21.6137 39.4067L20.0647 40.3362L23.2395 45.6264L28.5297 42.4515L27.6003 40.9025L25.1526 42.3711C27.7123 31.9542 37.0797 24.5162 47.9355 24.5162C50.3083 24.5162 52.6495 24.8684 54.894 25.5639L55.4287 23.8387C53.0108 23.0891 50.4899 22.7097 47.9355 22.7097Z" fill="#40BFB4"/>
<path d="M75.4964 39.9992L70.2062 36.8243L67.0322 42.1154L68.5813 43.0449L70.1619 40.4101C70.9938 42.8443 71.4192 45.3905 71.4192 48C71.4192 53.3714 69.5586 58.6228 66.1814 62.7858L67.5841 63.9238C71.2223 59.4402 73.2257 53.7842 73.2257 48C73.2257 45.237 72.7804 42.5391 71.9124 39.9558L74.5669 41.5482L75.4964 39.9992Z" fill="#40BFB4"/>
</svg>
