<svg width="96" height="96" viewBox="0 0 96 96" fill="none" xmlns="http://www.w3.org/2000/svg">
<circle cx="48" cy="48" r="48" fill="#F4FBFB"/>
<g clip-path="url(#clip0_127_1272)">
<path d="M74.2385 70.3898L75.9015 67.074C76.0465 66.7839 76.0304 66.4394 75.8591 66.164C75.6879 65.8886 75.3859 65.7218 75.0616 65.7237H70.3953V61.9908C70.3954 61.7036 70.2632 61.4323 70.0369 61.2554C69.2626 60.6887 68.4436 60.1856 67.5882 59.751C70.9897 53.6215 71.3185 46.2511 68.4762 39.843C65.6339 33.4349 59.9497 28.7316 53.123 27.139L48.7443 21.3014C48.7138 21.2695 48.6807 21.2402 48.6453 21.2137C48.6183 21.1788 48.589 21.1458 48.5576 21.1147C48.5419 21.1063 48.5257 21.0989 48.509 21.0923C48.454 21.0577 48.3951 21.0294 48.3336 21.0083C48.2827 20.9847 48.2295 20.9662 48.1749 20.9533C48.057 20.9409 47.9382 20.9409 47.8203 20.9533C47.7658 20.9668 47.7127 20.9851 47.6616 21.0083C47.6004 21.0301 47.5417 21.0579 47.4862 21.0913C47.4712 21.1016 47.4526 21.1035 47.4376 21.1146C47.4056 21.1454 47.376 21.1784 47.3489 21.2136C47.3145 21.2408 47.2818 21.2701 47.2509 21.3013L42.8749 27.135C36.0467 28.7267 30.3609 33.4303 27.5178 39.8396C24.6747 46.2489 25.004 53.6207 28.407 59.7509C27.5514 60.1866 26.7325 60.691 25.9583 61.259C25.7331 61.4351 25.601 61.7048 25.5999 61.9907V65.7236H20.9337C20.6102 65.7235 20.3097 65.8908 20.1396 66.1659C19.9694 66.441 19.9539 66.7845 20.0984 67.0739L21.7568 70.3897L20.0984 73.7056C19.9539 73.995 19.9694 74.3385 20.1394 74.6137C20.3096 74.8889 20.6102 75.0562 20.9337 75.0561H32.1325C32.2434 75.0532 32.353 75.0311 32.4564 74.9908C32.4769 74.9824 32.4974 74.9768 32.5179 74.9675C32.6129 74.9243 32.6999 74.8657 32.7755 74.7939C32.7905 74.7799 32.8006 74.7631 32.8146 74.7482C32.8482 74.7146 32.8794 74.6788 32.9079 74.6409C32.9198 74.6153 32.9305 74.5892 32.9396 74.5625C32.9695 74.5074 32.9933 74.4492 33.0105 74.3889C33.0295 74.3283 33.042 74.2657 33.0478 74.2023C33.055 74.1761 33.0609 74.1497 33.0655 74.123V68.1614C33.7757 67.9039 34.5317 67.6491 35.3697 67.4074C42.9759 72.6265 53.0092 72.6287 60.6176 67.4129C61.4575 67.6556 62.2163 67.9113 62.9292 68.1698V74.123C62.9334 74.151 62.939 74.1786 62.9461 74.206C62.9519 74.2693 62.9644 74.3319 62.9834 74.3927C63.0007 74.4529 63.0244 74.5111 63.0544 74.5662C63.0635 74.5929 63.0742 74.619 63.0861 74.6446C63.1146 74.6825 63.1459 74.7184 63.1794 74.7519C63.1934 74.7669 63.2036 74.7836 63.2185 74.7976C63.2942 74.8694 63.3812 74.928 63.4761 74.9712C63.4966 74.9805 63.5171 74.9862 63.5376 74.9945C63.6415 75.0336 63.7514 75.0545 63.8625 75.0561H75.0613C75.3856 75.0578 75.6877 74.8911 75.8589 74.6158C76.0302 74.3404 76.0463 73.9958 75.9013 73.7057L74.2385 70.3898ZM27.4664 48.9253C27.5061 40.3051 32.8995 32.6178 40.9919 29.6473L38.852 32.5003C38.6399 32.7831 38.6058 33.1614 38.7638 33.4776C38.9219 33.7938 39.245 33.9935 39.5985 33.9935H43.3314V40.5261C43.3314 41.0415 43.7492 41.4593 44.2646 41.4593C44.7801 41.4593 45.1978 41.0415 45.1978 40.5261V33.0603C45.1978 32.5448 44.7801 32.1271 44.2646 32.1271H41.4649L47.9975 23.4171L54.5302 32.1271H51.7305C51.215 32.1271 50.7973 32.5448 50.7973 33.0603V40.5262C50.7973 41.0416 51.215 41.4594 51.7305 41.4594C52.2459 41.4594 52.6637 41.0416 52.6637 40.5262V33.9936H56.3966C56.7501 33.9936 57.0732 33.7939 57.2314 33.4777C57.3894 33.1615 57.3553 32.7832 57.1432 32.5004L55.0033 29.6475C63.0956 32.618 68.4891 40.3053 68.5288 48.9255C68.5279 52.4307 67.6248 55.8766 65.9064 58.9316C60.249 56.5225 54.1453 55.3386 47.9974 55.4581C41.8495 55.3386 35.746 56.5225 30.0885 58.9316C28.3704 55.8764 27.4673 52.4305 27.4664 48.9253ZM22.4436 73.1896L23.6401 70.8069C23.7713 70.5444 23.7713 70.2353 23.6401 69.9726L22.4436 67.59H25.5999V70.3897C25.603 70.432 25.6089 70.4741 25.6176 70.5157C25.6202 70.5445 25.6243 70.5731 25.6297 70.6016C25.6529 70.7053 25.6937 70.8044 25.7502 70.8945C25.7586 70.9067 25.7707 70.917 25.7791 70.9291C25.8355 71.0069 25.9038 71.0753 25.9817 71.1316C25.9948 71.1419 26.0013 71.1568 26.0153 71.1662L29.053 73.1894H22.4436V73.1896ZM31.1993 72.3795L28.226 70.3964C29.1835 69.8325 30.1768 69.3316 31.1993 68.8967V72.3795ZM47.9977 69.4566C44.4523 69.4602 40.9673 68.538 37.8878 66.781C41.2096 66.0643 44.5994 65.7097 47.9977 65.7237C51.3936 65.7103 54.7811 66.0663 58.0999 66.7857C55.0221 68.5393 51.5401 69.4599 47.9977 69.4566ZM47.9977 63.8572C37.1123 63.8572 30.3006 67.0069 27.4664 68.6661V62.4732C29.053 61.4046 35.9187 57.3245 47.9977 57.3245C60.0365 57.3245 66.9349 61.4093 68.5289 62.4752V68.6663C65.6947 67.0069 58.883 63.8572 47.9977 63.8572ZM64.796 68.8967C65.8171 69.3332 66.809 69.835 67.7655 70.3992L64.796 72.3796V68.8967ZM72.3599 70.8069L73.5517 73.1896H66.9425L69.9773 71.1663C69.9913 71.157 69.9979 71.142 70.0109 71.1318C70.0887 71.0754 70.1571 71.0071 70.2134 70.9292C70.2219 70.9171 70.234 70.9068 70.2424 70.8947C70.2989 70.8045 70.3395 70.7055 70.3628 70.6017C70.3683 70.5732 70.3723 70.5446 70.375 70.5158C70.3847 70.4744 70.3916 70.4323 70.3955 70.3898V67.5901H73.5518L72.36 69.9727C72.2287 70.2353 72.2287 70.5444 72.3599 70.8069Z" fill="#40BFB4"/>
<path d="M35.3496 46.9608L35.8657 46.7023V51.725H34.9325C34.417 51.725 33.9993 52.1427 33.9993 52.6582C33.9993 53.1736 34.417 53.5914 34.9325 53.5914H38.6654C39.1808 53.5914 39.5986 53.1736 39.5986 52.6582C39.5986 52.1427 39.1808 51.725 38.6654 51.725H37.7322V45.1923C37.7323 44.8688 37.565 44.5684 37.2898 44.3982C37.0146 44.228 36.6711 44.2125 36.3818 44.3571L34.5152 45.2903C34.0539 45.5207 33.8667 46.0814 34.0971 46.5427C34.3276 47.004 34.8883 47.1912 35.3496 46.9608Z" fill="#40BFB4"/>
<path d="M42.398 53.5915H45.1977C46.2286 53.5915 47.0642 52.7559 47.0642 51.725V46.1256C47.0642 45.0947 46.2286 44.259 45.1977 44.259H42.398C41.3671 44.259 40.5315 45.0947 40.5315 46.1256V51.725C40.5316 52.7559 41.3673 53.5915 42.398 53.5915ZM42.398 46.1256H45.1977V51.725H42.398V46.1256Z" fill="#40BFB4"/>
<path d="M49.8643 53.5915H52.664C53.6949 53.5915 54.5306 52.7559 54.5306 51.725V46.1256C54.5306 45.0947 53.6949 44.259 52.664 44.259H49.8643C48.8335 44.259 47.9978 45.0947 47.9978 46.1256V51.725C47.9978 52.7559 48.8335 53.5915 49.8643 53.5915ZM49.8643 46.1256H52.664V51.725H49.8643V46.1256Z" fill="#40BFB4"/>
<path d="M56.9754 46.9842C57.2013 47.0839 57.4587 47.0839 57.6846 46.9842C57.7977 46.9369 57.9018 46.8706 57.9926 46.7882C58.163 46.6093 58.2596 46.3727 58.2632 46.1256C58.2616 46.063 58.2554 46.0006 58.2445 45.9389C58.2344 45.8804 58.2156 45.8239 58.1886 45.7709C58.17 45.7135 58.1415 45.6599 58.1046 45.6122C58.0673 45.5563 58.0299 45.5096 57.9926 45.463C57.9018 45.3806 57.7977 45.3143 57.6846 45.267C57.4573 45.1737 57.2025 45.1737 56.9754 45.267C56.8623 45.3143 56.7582 45.3806 56.6674 45.463C56.6301 45.5097 56.5927 45.5563 56.5554 45.6122C56.5185 45.6598 56.49 45.7135 56.4714 45.7709C56.4444 45.8239 56.4256 45.8804 56.4154 45.9389C56.4046 46.0006 56.3984 46.0629 56.3967 46.1256C56.4003 46.3727 56.497 46.6092 56.6674 46.7882C56.7582 46.8706 56.8623 46.9369 56.9754 46.9842Z" fill="#40BFB4"/>
<path d="M63.7882 51.3658C63.7696 51.3084 63.7411 51.2548 63.7042 51.2071C63.6669 51.1511 63.6295 51.1044 63.5922 51.0578C63.5014 50.9755 63.3973 50.9092 63.2842 50.8618C63.0569 50.7685 62.8021 50.7685 62.575 50.8618C62.4619 50.9092 62.3578 50.9755 62.267 51.0578C62.2297 51.1045 62.1923 51.1511 62.155 51.2071C62.1181 51.2547 62.0896 51.3084 62.071 51.3658C62.044 51.4187 62.0252 51.4753 62.015 51.5338C62.0042 51.5955 61.998 51.6578 61.9963 51.7205C61.9999 51.9675 62.0966 52.2041 62.267 52.3831C62.3578 52.4654 62.4619 52.5317 62.575 52.5791C62.8009 52.6787 63.0584 52.6787 63.2842 52.5791C63.3973 52.5317 63.5014 52.4654 63.5922 52.3831C63.7626 52.2042 63.8592 51.9675 63.8629 51.7205C63.8612 51.6579 63.855 51.5955 63.8442 51.5338C63.834 51.4753 63.8152 51.4186 63.7882 51.3658Z" fill="#40BFB4"/>
<path d="M56.468 52.0822C56.6123 52.4308 56.9526 52.6582 57.33 52.6583C57.5775 52.6583 57.8148 52.5599 57.9898 52.3849L63.5892 46.7854C63.9429 46.4193 63.9379 45.8371 63.5779 45.4772C63.2178 45.1172 62.6358 45.1122 62.2696 45.4658L56.6702 51.0653C56.4035 51.3321 56.3236 51.7334 56.468 52.0822Z" fill="#40BFB4"/>
</g>
<defs>
<clipPath id="clip0_127_1272">
<rect width="56" height="56" fill="white" transform="translate(20 20)"/>
</clipPath>
</defs>
</svg>
