<svg width="96" height="96" viewBox="0 0 96 96" fill="none" xmlns="http://www.w3.org/2000/svg">
<circle cx="48" cy="48" r="48" fill="#F4FBFB"/>
<path d="M76 65.534V30.5206H70.7397V20H27.8356V21.6438H69.0959V25.2603H21.6438V21.6438H26.0821V20H20V65.4794H25.2603V76H76V67.2875H74.3562V74.3561H26.9041V37.4246H74.3561V65.534H76V65.534ZM25.2603 30.5206V35.7808V37.4246V63.8356H21.6438V26.9041H69.0958V30.5206H25.2603V30.5206ZM26.9041 35.7808V32.1644H74.3561V35.7808H26.9041Z" fill="#40BFB4"/>
<path d="M26.082 22.6301H24.3286V24.2739H26.082V22.6301Z" fill="#40BFB4"/>
<path d="M29.5888 22.6301H27.8354V24.2739H29.5888V22.6301Z" fill="#40BFB4"/>
<path d="M33.0959 22.6301H31.3425V24.2739H33.0959V22.6301Z" fill="#40BFB4"/>
<path d="M66.4109 22.6301H64.6575V24.2739H66.4109V22.6301Z" fill="#40BFB4"/>
<path d="M67.2878 39.2876V40.9315H70.8495V44.4931H72.4933V39.2876H67.2878Z" fill="#40BFB4"/>
<path d="M30.4109 70.8493V67.2876H28.7671V72.4931H33.9726V70.8493H30.4109Z" fill="#40BFB4"/>
<path d="M72.4929 52.3834H70.8491V54.1368H72.4929V52.3834Z" fill="#40BFB4"/>
<path d="M72.4929 46.2466H70.8491V50.6301H72.4929V46.2466Z" fill="#40BFB4"/>
<path d="M30.4109 57.6439H28.7671V59.3973H30.4109V57.6439Z" fill="#40BFB4"/>
<path d="M30.4109 61.1508H28.7671V65.5343H30.4109V61.1508Z" fill="#40BFB4"/>
<path d="M31.3425 33.1506H29.5891V34.7944H31.3425V33.1506Z" fill="#40BFB4"/>
<path d="M34.8493 33.1506H33.0959V34.7944H34.8493V33.1506Z" fill="#40BFB4"/>
<path d="M38.3562 33.1506H36.6028V34.7944H38.3562V33.1506Z" fill="#40BFB4"/>
<path d="M71.6711 33.1506H69.9177V34.7944H71.6711V33.1506Z" fill="#40BFB4"/>
<path d="M59.8721 61.0072L56.4444 61.9024L55.5056 65.3185L57.9947 67.8394L61.4225 66.9444L62.3611 63.5282L59.8721 61.0072ZM60.0889 65.5936L58.4976 66.0091L57.3421 64.8388L57.778 63.253L59.3692 62.8375L60.5246 64.0079L60.0889 65.5936Z" fill="#40BFB4"/>
<path d="M58.9724 58.2705C58.9589 58.2704 58.9456 58.2704 58.9321 58.2704C58.4122 58.2704 57.9022 58.3351 57.4107 58.4597L54.4525 55.4638L58.5681 51.4002L61.2642 50.8788L65.8197 46.3808L60.3839 40.8756L55.8285 45.3737L55.2729 48.0628L51.1573 52.1265L48.1949 49.1261C48.7389 47.0856 48.2211 44.8168 46.6333 43.2086C44.9733 41.5273 42.4579 40.9436 40.2254 41.7222L38.9974 42.1504L41.8094 44.9984L41.1111 46.3732L39.7275 47.054L36.9155 44.2061L36.4717 45.4285C35.665 47.651 36.2162 50.1735 37.8763 51.8549C39.0311 53.0244 40.5722 53.6742 42.2157 53.6847C42.2291 53.6848 42.2425 53.6848 42.2559 53.6848C42.7758 53.6848 43.2858 53.6201 43.7772 53.4955L45.6656 55.408L35.7111 65.2369L35.7002 66.9946L39.3891 70.7307L41.1469 70.7421L51.1013 60.9134L52.9895 62.8259C52.8554 63.3282 52.7834 63.8508 52.7801 64.3847C52.7696 66.0281 53.3998 67.5774 54.5546 68.747C55.7564 69.9642 57.3445 70.5741 58.9334 70.5741C60.4958 70.5741 62.0591 69.9841 63.2561 68.8023C65.6704 66.4185 65.6953 62.515 63.3115 60.1008C62.157 58.9308 60.6158 58.281 58.9724 58.2705ZM57.3377 46.1936L60.3694 43.2004L63.4952 46.3662L60.4636 49.3595L58.4436 49.75L56.9215 48.2082L57.3377 46.1936ZM56.0201 49.635L57.0056 50.6331L53.2978 54.294L52.3123 53.2959L56.0201 49.635ZM42.2557 52.0409C42.246 52.0409 42.236 52.0409 42.2261 52.0408C41.0217 52.0333 39.8922 51.557 39.046 50.6999C38.1699 49.8125 37.7152 48.6057 37.7501 47.3912L39.3901 49.0522L42.3284 47.6064L43.8114 44.6867L42.1715 43.0257C43.3876 43.0028 44.5876 43.4764 45.4636 44.3636C47.2104 46.1329 47.1922 48.9935 45.423 50.7405C44.573 51.5798 43.4493 52.0409 42.2557 52.0409ZM49.7471 59.9404L40.4766 69.0936L40.0807 69.0911L39.2921 68.2923L45.7524 61.9136L44.5974 60.7438L38.1371 67.1225L37.3484 66.3238L37.3508 65.9278L46.6213 56.7746L47.0174 56.777L49.7497 59.5442L49.7471 59.9404ZM51.3979 58.8738L47.7088 55.1373H47.7086L45.4143 52.8137C45.8318 52.5628 46.2225 52.261 46.578 51.9101C46.9366 51.556 47.2413 51.1677 47.4944 50.7562L55.7736 59.1415C55.3561 59.3922 54.9654 59.6941 54.6099 60.045C54.2546 60.3959 53.9479 60.7828 53.6918 61.1973L51.3979 58.8738ZM62.1015 67.6323C60.3321 69.3793 57.4715 69.3611 55.7246 67.5918C54.8783 66.7347 54.4164 65.5993 54.4241 64.3948C54.4318 63.1905 54.9081 62.061 55.7651 61.2148C56.6424 60.3486 57.7879 59.9164 58.9331 59.9164C60.0975 59.9164 61.2615 60.3633 62.1421 61.2553C63.8889 63.0246 63.8706 65.8852 62.1015 67.6323Z" fill="#40BFB4"/>
</svg>
